<?xml version="1.0" encoding="UTF-8"?>
<svg xmlns="http://www.w3.org/2000/svg" xmlns:xlink="http://www.w3.org/1999/xlink" width="32px" height="32px" viewBox="0 0 32 32" version="1.1">
<g id="surface1">
<path style="fill:none;stroke-width:0.3;stroke-linecap:butt;stroke-linejoin:miter;stroke:rgb(95.686275%,26.27451%,20.784314%);stroke-opacity:0.94902;stroke-miterlimit:4;" d="M 146 213 C 150.125 212.625 154.125 213.25 158 212 C 159.875 214.625 162.375 217.25 165 219 C 130.0625 168.125 98.3125 115.1875 64 64 C 130.125 105.5625 194.875 150.1875 261 192 C 265.625 146.5625 272.25 101.625 276 56 C 296.5625 94.9375 314.8125 136.0625 334 176 C 377.4375 139.5625 418.8125 99.0625 462 62 C 441.8125 114.5 420.8125 166.6875 400 219 C 412.3125 216.1875 424.6875 214 437 211 C 438.875 213.625 441.375 216.25 444 218 C 451.1875 219 461.125 210.125 469 211 C 463.125 220.25 456.75 229.625 450 238 C 450.75 243.8125 452.625 250.75 453 256 C 456 248.375 466.875 241.8125 469 234 C 468.5625 229.375 469.3125 224.625 469 220 C 473.25 218.4375 477.75 217.75 482 216 C 486.5625 206.9375 494.625 199.1875 499 190 C 471.5 196.875 444.25 204.4375 417 212 C 441.25 146.6875 469 82.375 493 17 C 440.875 62.5625 390 110.125 338 156 C 316 107.8125 293.0625 58.9375 269 12 C 263.125 64.6875 256.625 117.25 251 170 C 173.6875 121.875 98.375 69 21 21 C 25.1875 27.5 29.125 34.25 33.25 40.75 C 37.375 47.25 42.3125 53.25 46.0625 59.9375 C 49.8125 66.5625 54.9375 72.6875 58.75 79.25 C 62.5625 85.8125 66.9375 91.5625 71.0625 97.9375 C 75.25 104.3125 79.125 111.125 83.6875 117.3125 C 88.25 123.5 91.5625 130.75 96.25 136.75 C 100.875 142.75 103.9375 149.75 108.25 155.75 C 112.5625 161.75 116.9375 169.0625 121.0625 174.9375 C 125.25 180.75 129.125 189.375 133.75 194.25 C 138.375 199.125 140.1875 210.4375 146 213 Z M 146 213 " transform="matrix(0.0625,0,0,0.0625,0,0)"/>
<path style="fill:none;stroke-width:0.3;stroke-linecap:butt;stroke-linejoin:miter;stroke:rgb(99.607843%,62.352941%,0.392157%);stroke-opacity:1;stroke-miterlimit:4;" d="M 165 219 C 166.1875 220.6875 167.0625 222.4375 168 224 C 168.75 225.25 170.3125 228.5625 172 229 C 178 225 189 222.5625 196 220 C 180.6875 194.8125 163.6875 170.375 149 145 C 188.0625 169.875 226.6875 196.9375 265 223 C 270.4375 220.9375 276.75 218.25 282 217 C 284.75 212.1875 281.25 203.625 283 198 C 284.75 192.375 282.8125 185 284 179 C 285.1875 173 284.0625 165.1875 285 159 C 285.9375 152.8125 285.5 146.25 286 140 C 286.5 133.75 286.8125 126.6875 288 121 C 301.75 157.4375 315.875 193.6875 330 230 C 359.6875 197.9375 387.6875 163.625 418 132 C 403.75 165.375 386 197.5625 372 231 C 380.1875 229.3125 387.5625 227.8125 393 236 C 392.4375 230.75 394.75 226.25 394 221 C 395.75 219.5625 398.25 220.4375 400 219 C 420.8125 166.6875 441.8125 114.5 462 62 C 418.8125 99.0625 377.4375 139.5625 334 176 C 314.8125 136.0625 296.5625 94.9375 276 56 C 272.25 101.625 265.625 146.5625 261 192 C 194.875 150.1875 130.125 105.5625 64 64 C 98.3125 115.1875 130.0625 168.125 165 219 Z M 165 219 " transform="matrix(0.0625,0,0,0.0625,0,0)"/>
<path style="fill:none;stroke-width:0.3;stroke-linecap:butt;stroke-linejoin:miter;stroke:rgb(99.607843%,91.372549%,23.137255%);stroke-opacity:1;stroke-miterlimit:4;" d="M 282 217 C 284.4375 216.4375 287.5 216.1875 290 216 C 291.9375 197.25 291.375 177.1875 294 159 C 300.75 180.0625 312.0625 201.6875 317 222 C 321.875 225.25 330.25 232.875 333 238 C 351.625 219.625 367.9375 198.6875 386 180 C 379.0625 198.0625 368.8125 214.9375 362 233 C 365.25 232.25 368.75 231.6875 372 231 C 386 197.5625 403.75 165.375 418 132 C 387.6875 163.625 359.6875 197.9375 330 230 C 315.875 193.6875 301.75 157.4375 288 121 C 286.8125 126.6875 286.5 133.75 286 140 C 285.5 146.25 285.9375 152.8125 285 159 C 284.0625 165.1875 285.1875 173 284 179 C 282.8125 185 284.75 192.375 283 198 C 281.25 203.625 284.75 212.1875 282 217 Z M 282 217 " transform="matrix(0.0625,0,0,0.0625,0,0)"/>
<path style="fill:none;stroke-width:0.3;stroke-linecap:butt;stroke-linejoin:miter;stroke:rgb(99.215686%,92.156863%,34.901961%);stroke-opacity:1;stroke-miterlimit:4;" d="M 196 220 C 199.25 218.8125 203.8125 216.8125 207.0625 216.0625 C 210.375 215.3125 214.8125 211.5 218 212 C 220.625 212.375 228 220.6875 229 223 C 233.0625 232.375 230.5625 244.9375 233 255 C 235.4375 265.0625 235.625 276.625 237 287 C 238.9375 287.75 244.4375 286.5625 246 288 C 245.0625 278.25 240.25 273.0625 238 264 C 235.75 254.875 234.6875 246.1875 233 237 C 243.8125 232.875 254.0625 226.9375 265 223 C 226.6875 196.9375 188.0625 169.875 149 145 C 163.6875 170.375 180.6875 194.8125 196 220 Z M 196 220 " transform="matrix(0.0625,0,0,0.0625,0,0)"/>
<path style="fill:none;stroke-width:0.3;stroke-linecap:butt;stroke-linejoin:miter;stroke:rgb(99.607843%,94.117647%,48.235294%);stroke-opacity:1;stroke-miterlimit:4;" d="M 290 216 C 299 215.25 309.5625 217 317 222 C 312.0625 201.6875 300.75 180.0625 294 159 C 291.375 177.1875 291.9375 197.25 290 216 Z M 290 216 " transform="matrix(0.0625,0,0,0.0625,0,0)"/>
<path style="fill:none;stroke-width:0.3;stroke-linecap:butt;stroke-linejoin:miter;stroke:rgb(98.823529%,94.117647%,52.156863%);stroke-opacity:1;stroke-miterlimit:4;" d="M 333 238 C 336.3125 244.125 337.625 254.8125 337 262 C 337.375 262.6875 339.75 263.375 340 264 C 341.25 255.0625 341.3125 245.875 343 237 C 349.4375 236.1875 355.875 235.0625 362 233 C 368.8125 214.9375 379.0625 198.0625 386 180 C 367.9375 198.6875 351.625 219.625 333 238 Z M 333 238 " transform="matrix(0.0625,0,0,0.0625,0,0)"/>
<path style="fill:none;stroke-width:0.3;stroke-linecap:butt;stroke-linejoin:miter;stroke:rgb(0%,0%,0%);stroke-opacity:1;stroke-miterlimit:4;" d="M 73 231 C 72.625 235.1875 72.5625 238.875 72 243 C 71.625 245.6875 70.6875 248.125 71 251 C 69.0625 249.5625 70.4375 246.1875 70 244 C 69.5 240.125 69.125 233.125 66 230 C 57.75 221.75 53.5 223.75 44 228 C 40 229.8125 28.375 234.625 28 239 C 31.125 248.1875 32.9375 257.4375 35 267 C 37.125 276.5 39.6875 285.4375 42 295 C 44.3125 304.5625 45.6875 314.0625 48.25 323.75 C 50.75 333.5 50.75 340.8125 58.25 348.75 C 65.75 356.6875 72.5625 350.625 82.3125 348.3125 C 92.0625 346 90.75 333.25 93.6875 324.6875 C 96.5625 316.0625 97.375 305.1875 101 297 C 105.875 306.375 104.8125 315.625 109.25 325.75 C 113.6875 335.875 124.25 335.5625 133 334 C 146.4375 331.5625 145.1875 321.5 148 310 C 150.125 301.375 151.8125 292.625 154 284 C 155 280.0625 156.125 276 157 272 C 158.5 265 160.5 258.0625 162 251 C 163.625 243.375 169.125 231.75 168 224 C 167.0625 222.4375 166.1875 220.6875 165 219 C 162.375 217.25 159.875 214.625 158 212 C 154.125 213.25 150.125 212.625 146 213 C 139.3125 215 132.1875 214.9375 125 216 C 124 223.625 125.0625 230.3125 123 238 C 121.5 231.625 121.25 225.625 121 220 C 116.625 218.125 111.9375 213.375 110 209 C 98.125 211.875 86.75 216.4375 75 218 C 74 222.5 73.375 226.75 73 231 M 122 294 C 123.375 268.875 126.5625 244.125 128 219 C 136.75 218.375 145.25 216.625 154 216 C 152.5 224.125 150.75 231.875 149 240 C 147.25 248.125 144.375 255.6875 143 264 C 141.6875 272.375 138.25 279.4375 137.0625 288.0625 C 135.875 296.6875 132.1875 303.125 131.25 312.25 C 130.25 321.3125 119.75 320.5 112 323 C 106.5625 303.375 100.6875 283.875 96 264 C 88.875 270 88.5 282.625 86 293 C 83.5 303.375 79.3125 312.8125 78.0625 324.0625 C 76.875 335.375 65.9375 338.625 55 340 C 53 329.1875 50.125 317.75 48 307 C 45.875 296.25 41.875 285.5625 40.0625 274.9375 C 38.3125 264.3125 34 252.625 32.6875 242.3125 C 31.375 232 49.9375 232.8125 56 227 C 55.8125 234.375 57.4375 243 58 250 C 58.5625 257 59.125 266.625 60 273 C 60.875 279.375 62.25 290.5 62.3125 295.6875 C 62.375 300.8125 64.1875 316.8125 67.3125 312.3125 C 70.4375 307.75 68.0625 296.125 70 290 C 71.9375 283.8125 71.0625 274.25 72.3125 267.3125 C 73.5625 260.4375 74.125 252.25 75 245 C 75.875 237.6875 76.9375 229.5625 77 222 C 85.75 220.375 93.6875 215.5 102.6875 214.6875 C 111.6875 213.8125 108.5625 230.25 111 238 C 113.375 245.8125 112.4375 258.8125 115 267 C 117.5625 275.25 114.4375 290.125 122 294 Z M 122 294 " transform="matrix(0.0625,0,0,0.0625,0,0)"/>
<path style="fill:none;stroke-width:0.3;stroke-linecap:butt;stroke-linejoin:miter;stroke:rgb(0%,0%,0%);stroke-opacity:1;stroke-miterlimit:4;" d="M 400 219 C 398.25 220.4375 395.75 219.5625 394 221 C 394.75 226.25 392.4375 230.75 393 236 C 387.5625 227.8125 380.1875 229.3125 372 231 C 368.75 231.6875 365.25 232.25 362 233 C 355.875 235.0625 349.4375 236.1875 343 237 C 341.3125 245.875 341.25 255.0625 340 264 C 338.3125 275.75 336.8125 288.0625 336 300 C 335.1875 311.9375 331.75 324 332 336 C 332.25 347.9375 346.875 353.75 357 350 C 361.75 348.25 362 338.8125 363 334 C 363.75 330.3125 365.1875 326.6875 366 323 C 366.625 320.375 367.5 317.25 368 315 C 368.875 311.375 367.875 306.5625 371 304 C 371.25 308.5 372.625 312.75 374 317 C 374.875 319.9375 375.3125 322.9375 376 326 C 376.375 327.5625 376.625 329.375 377 331 C 377.625 333.625 379.125 337.0625 380 340 C 383.5 351.5 394.1875 358.375 405 351 C 406.3125 345.6875 407.6875 340.375 409 335 C 409.5625 333 410.4375 331 411 329 C 412.25 324.375 413.8125 319.25 415 315 C 417.8125 304.8125 419.4375 294.25 422 284 C 424.75 287 425 291.8125 425 296 C 425.75 298.9375 427.25 302.5625 428 306 C 429.0625 310.625 429.875 315.3125 431 320 C 433.1875 329.25 442 339.5625 452 335 C 453.0625 334.5 460.5625 331.75 461 331 C 462.3125 327.875 460.4375 320.375 460 317 C 457.625 297.25 454.5 275.8125 453 256 C 452.625 250.75 450.75 243.8125 450 238 C 449.0625 230.75 449.8125 223 444 218 C 441.375 216.25 438.875 213.625 437 211 C 424.6875 214 412.3125 216.1875 400 219 M 435 215 C 439.3125 249.625 443 284.5 448 319 C 443.625 319.0625 440.375 322.6875 436 323 C 428.9375 298.5625 425.25 272.875 417 249 C 408.8125 262.875 409.125 283.125 403 298 C 396.875 312.875 399.75 335.875 383 341 C 381.75 332.6875 379.4375 323.9375 377 316 C 374.5625 308.0625 373.5625 298.9375 370.6875 291.3125 C 367.8125 283.75 368.8125 272.5625 362 269 C 357.4375 291.75 351.4375 314.1875 347 337 C 343 337 339 337 335 337 C 339 304.75 342.1875 272.3125 346 240 C 358.4375 238.25 370.375 234.1875 383 233 C 382.5625 250.6875 384.75 268.5625 385 286 C 385.25 303.4375 390.5 288.8125 390 281 C 389.5 273.1875 394.125 265.9375 393.3125 257.3125 C 392.5 248.6875 397.75 242.25 396.9375 232.9375 C 396.125 223.625 403.3125 220.75 412 220 C 420.75 219.25 426.5 215.75 435 215 Z M 435 215 " transform="matrix(0.0625,0,0,0.0625,0,0)"/>
<path style="fill:none;stroke-width:0.3;stroke-linecap:butt;stroke-linejoin:miter;stroke:rgb(99.215686%,61.176471%,0.392157%);stroke-opacity:1;stroke-miterlimit:4;" d="M 444 218 C 449.8125 223 449.0625 230.75 450 238 C 456.75 229.625 463.125 220.25 469 211 C 461.125 210.125 451.1875 219 444 218 Z M 444 218 " transform="matrix(0.0625,0,0,0.0625,0,0)"/>
<path style="fill:none;stroke-width:0.3;stroke-linecap:butt;stroke-linejoin:miter;stroke:rgb(0%,0%,0%);stroke-opacity:1;stroke-miterlimit:4;" d="M 482 216 C 477.75 217.75 473.25 218.4375 469 220 C 469.3125 224.625 468.5625 229.375 469 234 C 470.1875 246.8125 469.9375 262.25 471 275 C 472.0625 287.75 468.9375 300.9375 479 310 C 473.75 311.5 470.5 316.4375 467 320 C 463.5625 327.5 468.9375 333.9375 474 339 C 483.0625 348.8125 496.6875 349.625 506.25 339.25 C 515.8125 328.875 504.3125 317.4375 496 310 C 506.875 308.25 502 293.25 504 284 C 506.0625 274.75 505.5 262.6875 507.0625 253.0625 C 508.625 243.5 509.5625 233.0625 512 224 L 512 222 C 507.25 220.125 502.6875 209.125 497.25 211.25 C 491.8125 213.375 487.375 214.1875 482 216 M 473 231 C 472.75 228.5 470.5625 224.5 473 222 C 475.4375 219.5 482.5 220.8125 485.6875 218.6875 C 488.875 216.5625 494.625 217.125 498 215 C 495.8125 223.5 497 232.125 494.6875 240.6875 C 492.3125 249.1875 494.5 259.375 492 268 C 489.5 276.625 493.8125 286.9375 489 295 C 484.1875 303.125 472 299.25 475 289 C 478 278.75 472 270.875 473 261 C 474.0625 251.0625 472.1875 240.9375 473 231 M 492 312 C 504.9375 315.9375 488.75 341 475.9375 333.0625 C 463.125 325.125 477 307.4375 492 312 Z M 492 312 " transform="matrix(0.0625,0,0,0.0625,0,0)"/>
<path style="fill:none;stroke-width:0.3;stroke-linecap:butt;stroke-linejoin:miter;stroke:rgb(0%,0%,0%);stroke-opacity:1;stroke-miterlimit:4;" d="M 196 220 C 189 222.5625 178 225 172 229 C 167 232.3125 167.8125 245.25 167 251 C 166 258 165.0625 265.0625 164 272 C 163.25 277 162.75 282.0625 162 287 C 160.5 297 159.3125 307.0625 158 317 C 157.25 322.75 156.9375 328.3125 156 334 C 154.5625 342.5625 160.5 345.6875 166 352 C 175.6875 348.3125 180.6875 352.4375 184 341 C 187.5625 328.5 200.1875 324.75 212 320 C 211.625 321.5625 213.4375 322.375 213 324 C 216.25 331.375 218.625 338.6875 226 344 C 231.9375 342.1875 237.25 338.5625 243 336 C 245.8125 329.75 239.75 319.125 240 312 C 240.25 304.875 237.9375 294.3125 237 287 C 235.625 276.625 235.4375 265.0625 233 255 C 230.5625 244.9375 233.0625 232.375 229 223 C 226.8125 218.875 219.75 216.6875 218 212 C 214.8125 211.5 210.375 215.3125 207.0625 216.0625 C 203.8125 216.8125 199.25 218.8125 196 220 M 216 217 C 220.625 252.9375 225.5625 288.75 229 325 C 225.1875 325.8125 221.8125 328.1875 218 329 C 215.25 320.0625 213.1875 310.875 210 302 C 198.5 305 192.6875 312.6875 180.9375 315.9375 C 169.125 319.1875 174 339.625 159 338 C 163.25 302.5625 168.125 267.3125 173 232 C 187.75 228.375 201.25 220.5625 216 217 Z M 216 217 " transform="matrix(0.0625,0,0,0.0625,0,0)"/>
<path style="fill:none;stroke-width:0.3;stroke-linecap:butt;stroke-linejoin:miter;stroke:rgb(50.980392%,48.235294%,23.529412%);stroke-opacity:1;stroke-miterlimit:4;" d="M 229 223 C 228 220.6875 220.625 212.375 218 212 C 219.75 216.6875 226.8125 218.875 229 223 Z M 229 223 " transform="matrix(0.0625,0,0,0.0625,0,0)"/>
<path style="fill:none;stroke-width:0.3;stroke-linecap:butt;stroke-linejoin:miter;stroke:rgb(94.117647%,25.490196%,20.784314%);stroke-opacity:1;stroke-miterlimit:4;" d="M 122 294 C 114.4375 290.125 117.5625 275.25 115 267 C 112.4375 258.8125 113.375 245.8125 111 238 C 108.5625 230.25 111.6875 213.8125 102.6875 214.6875 C 93.6875 215.5 85.75 220.375 77 222 C 76.9375 229.5625 75.875 237.6875 75 245 C 74.125 252.25 73.5625 260.4375 72.3125 267.3125 C 71.0625 274.25 71.9375 283.8125 70 290 C 68.0625 296.125 70.4375 307.75 67.3125 312.3125 C 64.1875 316.8125 62.375 300.8125 62.3125 295.6875 C 62.25 290.5 60.875 279.375 60 273 C 59.125 266.625 58.5625 257 58 250 C 57.4375 243 55.8125 234.375 56 227 C 49.9375 232.8125 31.375 232 32.6875 242.3125 C 34 252.625 38.3125 264.3125 40.0625 274.9375 C 41.875 285.5625 45.875 296.25 48 307 C 50.125 317.75 53 329.1875 55 340 C 65.9375 338.625 76.875 335.375 78.0625 324.0625 C 79.3125 312.8125 83.5 303.375 86 293 C 88.5 282.625 88.875 270 96 264 C 100.6875 283.875 106.5625 303.375 112 323 C 119.75 320.5 130.25 321.3125 131.25 312.25 C 132.1875 303.125 135.875 296.6875 137.0625 288.0625 C 138.25 279.4375 141.6875 272.375 143 264 C 144.375 255.6875 147.25 248.125 149 240 C 150.75 231.875 152.5 224.125 154 216 C 145.25 216.625 136.75 218.375 128 219 C 126.5625 244.125 123.375 268.875 122 294 Z M 122 294 " transform="matrix(0.0625,0,0,0.0625,0,0)"/>
<path style="fill:none;stroke-width:0.3;stroke-linecap:butt;stroke-linejoin:miter;stroke:rgb(94.117647%,25.490196%,20.784314%);stroke-opacity:1;stroke-miterlimit:4;" d="M 435 215 C 426.5 215.75 420.75 219.25 412 220 C 403.3125 220.75 396.125 223.625 396.9375 232.9375 C 397.75 242.25 392.5 248.6875 393.3125 257.3125 C 394.125 265.9375 389.5 273.1875 390 281 C 390.5 288.8125 385.25 303.4375 385 286 C 384.75 268.5625 382.5625 250.6875 383 233 C 370.375 234.1875 358.4375 238.25 346 240 C 342.1875 272.3125 339 304.75 335 337 C 339 337 343 337 347 337 C 351.4375 314.1875 357.4375 291.75 362 269 C 368.8125 272.5625 367.8125 283.75 370.6875 291.3125 C 373.5625 298.9375 374.5625 308.0625 377 316 C 379.4375 323.9375 381.75 332.6875 383 341 C 399.75 335.875 396.875 312.875 403 298 C 409.125 283.125 408.8125 262.875 417 249 C 425.25 272.875 428.9375 298.5625 436 323 C 440.375 322.6875 443.625 319.0625 448 319 C 443 284.5 439.3125 249.625 435 215 Z M 435 215 " transform="matrix(0.0625,0,0,0.0625,0,0)"/>
<path style="fill:none;stroke-width:0.3;stroke-linecap:butt;stroke-linejoin:miter;stroke:rgb(93.72549%,25.490196%,20.784314%);stroke-opacity:1;stroke-miterlimit:4;" d="M 473 222 C 473 225 473 228 473 231 C 472.1875 240.9375 474.0625 251.0625 473 261 C 472 270.875 478 278.75 475 289 C 472 299.25 484.1875 303.125 489 295 C 493.8125 286.9375 489.5 276.625 492 268 C 494.5 259.375 492.3125 249.1875 494.6875 240.6875 C 497 232.125 495.8125 223.5 498 215 C 494.625 217.125 488.875 216.5625 485.6875 218.6875 C 482.5 220.8125 475.4375 219.5 473 222 Z M 473 222 " transform="matrix(0.0625,0,0,0.0625,0,0)"/>
<path style="fill:none;stroke-width:0.3;stroke-linecap:butt;stroke-linejoin:miter;stroke:rgb(0%,0%,0%);stroke-opacity:1;stroke-miterlimit:4;" d="M 282 217 C 276.75 218.25 270.4375 220.9375 265 223 C 254.0625 226.9375 243.8125 232.875 233 237 C 234.6875 246.1875 235.75 254.875 238 264 C 240.25 273.0625 245.0625 278.25 246 288 C 247.4375 302.9375 248.6875 319.625 251 335 C 251.1875 336.125 251.625 338.9375 252 340 C 253.9375 344.125 261.4375 346.3125 263 351 C 266.9375 351.5625 273.875 346.375 277.6875 344.6875 C 281.5 343 287.4375 339.4375 291 337 C 316.1875 319.5 334.3125 292.375 337 262 C 337.625 254.8125 336.3125 244.125 333 238 C 330.25 232.875 321.875 225.25 317 222 C 309.5625 217 299 215.25 290 216 C 287.5 216.1875 284.4375 216.4375 282 217 M 255 336 C 251.8125 313.125 251.0625 289.625 247 267 C 240.25 271.375 241.5 262.1875 240 257 C 238.5 251.75 237.875 244.5625 237 239 C 258.375 231.75 287.25 209.5625 311.0625 222.9375 C 334.875 236.25 321 275.125 309.25 293.25 C 297.4375 311.375 275.75 329.625 255 336 Z M 255 336 " transform="matrix(0.0625,0,0,0.0625,0,0)"/>
<path style="fill:none;stroke-width:0.3;stroke-linecap:butt;stroke-linejoin:miter;stroke:rgb(94.117647%,25.490196%,20.784314%);stroke-opacity:1;stroke-miterlimit:4;" d="M 216 217 C 201.25 220.5625 187.75 228.375 173 232 C 168.125 267.3125 163.25 302.5625 159 338 C 174 339.625 169.125 319.1875 180.9375 315.9375 C 192.6875 312.6875 198.5 305 210 302 C 213.1875 310.875 215.25 320.0625 218 329 C 221.8125 328.1875 225.1875 325.8125 229 325 C 225.5625 288.75 220.625 252.9375 216 217 M 207 285 C 199 288.875 190.875 293.5 182 295 C 184.5 278.625 189.8125 262.9375 194 247 C 202.1875 256.3125 201.6875 273 207 285 Z M 207 285 " transform="matrix(0.0625,0,0,0.0625,0,0)"/>
<path style="fill:none;stroke-width:0.3;stroke-linecap:butt;stroke-linejoin:miter;stroke:rgb(94.509804%,25.882353%,20.784314%);stroke-opacity:1;stroke-miterlimit:4;" d="M 255 336 C 275.75 329.625 297.4375 311.375 309.25 293.25 C 321 275.125 334.875 236.25 311.0625 222.9375 C 287.25 209.5625 258.375 231.75 237 239 C 237.875 244.5625 238.5 251.75 240 257 C 241.5 262.1875 240.25 271.375 247 267 C 251.0625 289.625 251.8125 313.125 255 336 M 268 293 C 268 288.5625 268.625 283.6875 269 280 C 269 269.25 264.75 248.5625 276.6875 245.6875 C 288.625 242.75 303.0625 239.5625 300 259 C 296.9375 278.4375 289.25 305.375 268 312 C 268 305.6875 268 299.3125 268 293 Z M 268 293 " transform="matrix(0.0625,0,0,0.0625,0,0)"/>
<path style="fill:none;stroke-width:0.3;stroke-linecap:butt;stroke-linejoin:miter;stroke:rgb(50.980392%,13.72549%,10.980392%);stroke-opacity:1;stroke-miterlimit:4;" d="M 473 231 C 473 228 473 225 473 222 C 470.5625 224.5 472.75 228.5 473 231 Z M 473 231 " transform="matrix(0.0625,0,0,0.0625,0,0)"/>
<path style="fill:none;stroke-width:0.3;stroke-linecap:butt;stroke-linejoin:miter;stroke:rgb(88.627451%,24.705882%,19.215686%);stroke-opacity:1;stroke-miterlimit:4;" d="M 162 251 C 163.6875 251 165.3125 251 167 251 C 167.8125 245.25 167 232.3125 172 229 C 170.3125 228.5625 168.75 225.25 168 224 C 169.125 231.75 163.625 243.375 162 251 Z M 162 251 " transform="matrix(0.0625,0,0,0.0625,0,0)"/>
<path style="fill:none;stroke-width:0.3;stroke-linecap:butt;stroke-linejoin:miter;stroke:rgb(94.509804%,25.490196%,20.784314%);stroke-opacity:0.839216;stroke-miterlimit:4;" d="M 28 239 C 28.375 234.625 40 229.8125 44 228 C 32.625 227.0625 21.1875 226.5 10 225 C 13 231.6875 23.5 233.25 28 239 Z M 28 239 " transform="matrix(0.0625,0,0,0.0625,0,0)"/>
<path style="fill:none;stroke-width:0.3;stroke-linecap:butt;stroke-linejoin:miter;stroke:rgb(86.27451%,23.921569%,18.823529%);stroke-opacity:0.929412;stroke-miterlimit:4;" d="M 70 244 C 70.5 242.8125 71.625 243.625 72 243 C 72.5625 238.875 72.625 235.1875 73 231 C 71.9375 229.5 67.5 230.4375 66 230 C 69.125 233.125 69.5 240.125 70 244 Z M 70 244 " transform="matrix(0.0625,0,0,0.0625,0,0)"/>
<path style="fill:none;stroke-width:0.3;stroke-linecap:butt;stroke-linejoin:miter;stroke:rgb(0%,0%,0%);stroke-opacity:0.0392157;stroke-miterlimit:4;" d="M 453 256 C 454.5 275.8125 457.625 297.25 460 317 C 461.4375 318.625 465.9375 317.375 467 320 C 470.5 316.4375 473.75 311.5 479 310 C 468.9375 300.9375 472.0625 287.75 471 275 C 469.9375 262.25 470.1875 246.8125 469 234 C 466.875 241.8125 456 248.375 453 256 Z M 453 256 " transform="matrix(0.0625,0,0,0.0625,0,0)"/>
<path style="fill:none;stroke-width:0.3;stroke-linecap:butt;stroke-linejoin:miter;stroke:rgb(85.490196%,53.333333%,0%);stroke-opacity:1;stroke-miterlimit:4;" d="M 70 244 C 70.4375 246.1875 69.0625 249.5625 71 251 C 70.6875 248.125 71.625 245.6875 72 243 C 71.625 243.625 70.5 242.8125 70 244 Z M 70 244 " transform="matrix(0.0625,0,0,0.0625,0,0)"/>
<path style="fill:none;stroke-width:0.3;stroke-linecap:butt;stroke-linejoin:miter;stroke:rgb(0%,0%,0%);stroke-opacity:1;stroke-miterlimit:4;" d="M 269 280 C 269 284.4375 268.375 289.3125 268 293 C 268 299.3125 268 305.6875 268 312 C 289.25 305.375 296.9375 278.4375 300 259 C 303.0625 239.5625 288.625 242.75 276.6875 245.6875 C 264.75 248.5625 269 269.25 269 280 M 282 271 C 282 267 280.9375 262.625 284 260 C 287.0625 257.375 293.1875 257.625 297 257 C 295.4375 271.25 290.8125 284.875 283 297 C 280.6875 289.25 282.625 279.5 282 271 Z M 282 271 " transform="matrix(0.0625,0,0,0.0625,0,0)"/>
<path style="fill:none;stroke-width:0.3;stroke-linecap:butt;stroke-linejoin:miter;stroke:rgb(0%,0%,0%);stroke-opacity:1;stroke-miterlimit:4;" d="M 207 285 C 201.6875 273 202.1875 256.3125 194 247 C 189.8125 262.9375 184.5 278.625 182 295 C 190.875 293.5 199 288.875 207 285 M 201 279 C 205.3125 284.1875 198.0625 286.75 201 279 Z M 201 279 " transform="matrix(0.0625,0,0,0.0625,0,0)"/>
<path style="fill:none;stroke-width:0.3;stroke-linecap:butt;stroke-linejoin:miter;stroke:rgb(95.294118%,60%,0%);stroke-opacity:1;stroke-miterlimit:4;" d="M 157 272 C 158.6875 271 162.375 273.0625 164 272 C 165.0625 265.0625 166 258 167 251 C 165.3125 251 163.6875 251 162 251 C 160.5 258.0625 158.5 265 157 272 Z M 157 272 " transform="matrix(0.0625,0,0,0.0625,0,0)"/>
<path style="fill:none;stroke-width:0.3;stroke-linecap:butt;stroke-linejoin:miter;stroke:rgb(96.078431%,93.72549%,71.764706%);stroke-opacity:1;stroke-miterlimit:4;" d="M 284 260 C 282.4375 261.875 282.1875 269.0625 282 271 C 282.625 279.5 280.6875 289.25 283 297 C 290.8125 284.875 295.4375 271.25 297 257 C 293.1875 257.625 287.0625 257.375 284 260 Z M 284 260 " transform="matrix(0.0625,0,0,0.0625,0,0)"/>
<path style="fill:none;stroke-width:0.3;stroke-linecap:butt;stroke-linejoin:miter;stroke:rgb(45.490196%,44.313725%,32.156863%);stroke-opacity:1;stroke-miterlimit:4;" d="M 282 271 C 282.1875 269.0625 282.4375 261.875 284 260 C 280.9375 262.625 282 267 282 271 Z M 282 271 " transform="matrix(0.0625,0,0,0.0625,0,0)"/>
<path style="fill:none;stroke-width:0.3;stroke-linecap:butt;stroke-linejoin:miter;stroke:rgb(98.039216%,96.078431%,77.647059%);stroke-opacity:1;stroke-miterlimit:4;" d="M 291 337 C 297.4375 336.6875 304.8125 343.75 312 342 C 319.1875 340.25 325.4375 339.375 332 336 C 331.75 324 335.1875 311.9375 336 300 C 336.8125 288.0625 338.3125 275.75 340 264 C 339.75 263.375 337.375 262.6875 337 262 C 334.3125 292.375 316.1875 319.5 291 337 Z M 291 337 " transform="matrix(0.0625,0,0,0.0625,0,0)"/>
<path style="fill:none;stroke-width:0.3;stroke-linecap:butt;stroke-linejoin:miter;stroke:rgb(96.470588%,88.627451%,21.960784%);stroke-opacity:1;stroke-miterlimit:4;" d="M 154 284 C 155 286.125 160.3125 285.9375 162 287 C 162.75 282.0625 163.25 277 164 272 C 162.375 273.0625 158.6875 271 157 272 C 156.125 276 155 280.0625 154 284 Z M 154 284 " transform="matrix(0.0625,0,0,0.0625,0,0)"/>
<path style="fill:none;stroke-width:0.3;stroke-linecap:butt;stroke-linejoin:miter;stroke:rgb(76.078431%,70.588235%,21.568627%);stroke-opacity:1;stroke-miterlimit:4;" d="M 201 279 C 198.0625 286.75 205.3125 284.1875 201 279 Z M 201 279 " transform="matrix(0.0625,0,0,0.0625,0,0)"/>
<path style="fill:none;stroke-width:0.3;stroke-linecap:butt;stroke-linejoin:miter;stroke:rgb(49.803922%,13.72549%,10.980392%);stroke-opacity:1;stroke-miterlimit:4;" d="M 268 293 C 268.375 289.3125 269 284.4375 269 280 C 268.625 283.6875 268 288.5625 268 293 Z M 268 293 " transform="matrix(0.0625,0,0,0.0625,0,0)"/>
<path style="fill:none;stroke-width:0.3;stroke-linecap:butt;stroke-linejoin:miter;stroke:rgb(97.254902%,60.784314%,0%);stroke-opacity:1;stroke-miterlimit:4;" d="M 148 310 C 149.125 313.375 156.75 313.9375 158 317 C 159.3125 307.0625 160.5 297 162 287 C 160.3125 285.9375 155 286.125 154 284 C 151.8125 292.625 150.125 301.375 148 310 Z M 148 310 " transform="matrix(0.0625,0,0,0.0625,0,0)"/>
<path style="fill:none;stroke-width:0.3;stroke-linecap:butt;stroke-linejoin:miter;stroke:rgb(92.54902%,25.882353%,20.392157%);stroke-opacity:0.94902;stroke-miterlimit:4;" d="M 415 315 C 416.5 314.375 429.6875 318.8125 431 320 C 429.875 315.3125 429.0625 310.625 428 306 C 426.4375 304.375 423 304.5 421 304 C 420.625 300.6875 423.75 298.6875 425 296 C 425 291.8125 424.75 287 422 284 C 419.4375 294.25 417.8125 304.8125 415 315 Z M 415 315 " transform="matrix(0.0625,0,0,0.0625,0,0)"/>
<path style="fill:none;stroke-width:0.3;stroke-linecap:butt;stroke-linejoin:miter;stroke:rgb(96.862745%,92.941176%,59.607843%);stroke-opacity:1;stroke-miterlimit:4;" d="M 243 336 C 243.8125 335.75 250.4375 334.625 251 335 C 248.6875 319.625 247.4375 302.9375 246 288 C 244.4375 286.5625 238.9375 287.75 237 287 C 237.9375 294.3125 240.25 304.875 240 312 C 239.75 319.125 245.8125 329.75 243 336 Z M 243 336 " transform="matrix(0.0625,0,0,0.0625,0,0)"/>
<path style="fill:none;stroke-width:0.3;stroke-linecap:butt;stroke-linejoin:miter;stroke:rgb(0%,0%,0%);stroke-opacity:0.0588235;stroke-miterlimit:4;" d="M 428 306 C 427.25 302.5625 425.75 298.9375 425 296 C 423.75 298.6875 420.625 300.6875 421 304 C 423 304.5 426.4375 304.375 428 306 Z M 428 306 " transform="matrix(0.0625,0,0,0.0625,0,0)"/>
<path style="fill:none;stroke-width:0.3;stroke-linecap:butt;stroke-linejoin:miter;stroke:rgb(92.941176%,58.431373%,0%);stroke-opacity:1;stroke-miterlimit:4;" d="M 368 315 C 368.875 316.6875 372.875 315.8125 374 317 C 372.625 312.75 371.25 308.5 371 304 C 367.875 306.5625 368.875 311.375 368 315 Z M 368 315 " transform="matrix(0.0625,0,0,0.0625,0,0)"/>
<path style="fill:none;stroke-width:0.3;stroke-linecap:butt;stroke-linejoin:miter;stroke:rgb(95.686275%,26.666667%,20.784314%);stroke-opacity:0.94902;stroke-miterlimit:4;" d="M 133 334 C 93.9375 364.9375 51.0625 393.625 13 425 C 71.375 413.5625 129.75 401.75 188 390 C 175.125 425.9375 161.75 461.75 150 498 C 192.4375 467.375 233.875 435.25 276 404 C 291.375 436.75 304.25 471.3125 321 503 C 330.875 471.9375 340.375 440.8125 351 410 C 399 438.3125 445.5625 470.0625 494 497 C 468.8125 452.9375 441.5625 409.625 418 365 C 424.875 364.625 431 357.8125 437.3125 356.3125 C 443.6875 354.8125 449.75 348.8125 455.75 347.75 C 461.8125 346.6875 468.25 338.4375 474 339 C 468.9375 333.9375 463.5625 327.5 467 320 C 465.9375 317.375 461.4375 318.625 460 317 C 460.4375 320.375 462.3125 327.875 461 331 C 459.8125 333.8125 454.25 334 452 335 C 434.6875 342.75 417.875 353.0625 400 360 C 417.75 393.8125 439.25 426.1875 457 460 C 418.6875 438 381.625 412.125 343 391 C 335.3125 416.75 327.5625 443.25 318 468 C 306.0625 439.875 293.0625 412.125 281 384 C 246.125 410.6875 211.1875 436.875 176 463 C 185.0625 433 196.625 403.6875 207 374 C 159.1875 381.4375 110.8125 394.4375 64 401 C 95.3125 379.75 124.6875 354.9375 156 334 C 156.9375 328.3125 157.25 322.75 158 317 C 156.75 313.9375 149.125 313.375 148 310 C 145.1875 321.5 146.4375 331.5625 133 334 Z M 133 334 " transform="matrix(0.0625,0,0,0.0625,0,0)"/>
<path style="fill:none;stroke-width:0.3;stroke-linecap:butt;stroke-linejoin:miter;stroke:rgb(93.333333%,25.490196%,20.392157%);stroke-opacity:1;stroke-miterlimit:4;" d="M 492 312 C 477 307.4375 463.125 325.125 475.9375 333.0625 C 488.75 341 504.9375 315.9375 492 312 Z M 492 312 " transform="matrix(0.0625,0,0,0.0625,0,0)"/>
<path style="fill:none;stroke-width:0.3;stroke-linecap:butt;stroke-linejoin:miter;stroke:rgb(96.470588%,88.235294%,23.137255%);stroke-opacity:1;stroke-miterlimit:4;" d="M 366 323 C 368 325.125 374.25 324.0625 376 326 C 375.3125 322.9375 374.875 319.9375 374 317 C 372.875 315.8125 368.875 316.6875 368 315 C 367.5 317.25 366.625 320.375 366 323 Z M 366 323 " transform="matrix(0.0625,0,0,0.0625,0,0)"/>
<path style="fill:none;stroke-width:0.3;stroke-linecap:butt;stroke-linejoin:miter;stroke:rgb(99.607843%,62.352941%,0%);stroke-opacity:1;stroke-miterlimit:4;" d="M 411 329 C 414.9375 330.625 418.875 331.9375 423 333 C 419 334.5625 413.75 335 409 335 C 407.6875 340.375 406.3125 345.6875 405 351 C 394.1875 358.375 383.5 351.5 380 340 C 373.875 340.0625 368.25 342.1875 362 342 C 376.625 365.0625 394.0625 386.9375 409 410 C 382.5 395.3125 357.75 375.875 331 362 C 326.125 379.8125 320.125 397.25 315 415 C 303.875 396.375 299.5625 371.8125 287 355 C 266.375 372 244.5 388 223 404 C 230.8125 383.6875 240.1875 364 249 344 C 213.75 350.1875 179.3125 359.75 144 366 C 150.5 360.4375 158.875 357 166 352 C 160.5 345.6875 154.5625 342.5625 156 334 C 124.6875 354.9375 95.3125 379.75 64 401 C 110.8125 394.4375 159.1875 381.4375 207 374 C 196.625 403.6875 185.0625 433 176 463 C 211.1875 436.875 246.125 410.6875 281 384 C 293.0625 412.125 306.0625 439.875 318 468 C 327.5625 443.25 335.3125 416.75 343 391 C 381.625 412.125 418.6875 438 457 460 C 439.25 426.1875 417.75 393.8125 400 360 C 417.875 353.0625 434.6875 342.75 452 335 C 442 339.5625 433.1875 329.25 431 320 C 429.6875 318.8125 416.5 314.375 415 315 C 413.8125 319.25 412.25 324.375 411 329 Z M 411 329 " transform="matrix(0.0625,0,0,0.0625,0,0)"/>
<path style="fill:none;stroke-width:0.3;stroke-linecap:butt;stroke-linejoin:miter;stroke:rgb(96.862745%,61.176471%,0.392157%);stroke-opacity:1;stroke-miterlimit:4;" d="M 184 341 C 190.3125 332.875 205.625 330.75 213 324 C 213.4375 322.375 211.625 321.5625 212 320 C 200.1875 324.75 187.5625 328.5 184 341 Z M 184 341 " transform="matrix(0.0625,0,0,0.0625,0,0)"/>
<path style="fill:none;stroke-width:0.3;stroke-linecap:butt;stroke-linejoin:miter;stroke:rgb(97.647059%,94.117647%,60.784314%);stroke-opacity:1;stroke-miterlimit:4;" d="M 363 334 C 365.75 331.25 375.375 335.5 377 331 C 376.625 329.375 376.375 327.5625 376 326 C 374.25 324.0625 368 325.125 366 323 C 365.1875 326.6875 363.75 330.3125 363 334 Z M 363 334 " transform="matrix(0.0625,0,0,0.0625,0,0)"/>
<path style="fill:none;stroke-width:0.3;stroke-linecap:butt;stroke-linejoin:miter;stroke:rgb(99.607843%,91.372549%,25.098039%);stroke-opacity:1;stroke-miterlimit:4;" d="M 184 341 C 180.6875 352.4375 175.6875 348.3125 166 352 C 158.875 357 150.5 360.4375 144 366 C 179.3125 359.75 213.75 350.1875 249 344 C 240.1875 364 230.8125 383.6875 223 404 C 244.5 388 266.375 372 287 355 C 299.5625 371.8125 303.875 396.375 315 415 C 320.125 397.25 326.125 379.8125 331 362 C 357.75 375.875 382.5 395.3125 409 410 C 394.0625 386.9375 376.625 365.0625 362 342 C 368.25 342.1875 373.875 340.0625 380 340 C 379.125 337.0625 377.625 333.625 377 331 C 375.375 335.5 365.75 331.25 363 334 C 362 338.8125 361.75 348.25 357 350 C 364.5 352.9375 361 359.875 368.25 365.75 C 375.5 371.625 368.125 376.625 361.75 370.25 C 355.375 363.875 350.3125 364.9375 344.3125 359.6875 C 338.3125 354.5 333.1875 353.4375 327 349 C 321.75 362.75 318.875 377.875 313 391 C 306.625 374.5625 298.625 358.6875 293 342 C 287.25 344.5 281.75 348.6875 276.9375 352.9375 C 272.125 357.1875 265.4375 360.5625 260.9375 364.9375 C 256.4375 369.25 247 374.5625 248.75 365.75 C 250.5625 357 254.5 354.0625 257 346 C 255.5625 344.5625 252.6875 341.875 252 340 C 251.625 338.9375 251.1875 336.125 251 335 C 250.4375 334.625 243.8125 335.75 243 336 C 237.25 338.5625 231.9375 342.1875 226 344 C 218.625 338.6875 216.25 331.375 213 324 C 205.625 330.75 190.3125 332.875 184 341 Z M 184 341 " transform="matrix(0.0625,0,0,0.0625,0,0)"/>
<path style="fill:none;stroke-width:0.3;stroke-linecap:butt;stroke-linejoin:miter;stroke:rgb(97.254902%,86.666667%,20.392157%);stroke-opacity:1;stroke-miterlimit:4;" d="M 409 335 C 413.75 335 419 334.5625 423 333 C 418.875 331.9375 414.9375 330.625 411 329 C 410.4375 331 409.5625 333 409 335 Z M 409 335 " transform="matrix(0.0625,0,0,0.0625,0,0)"/>
<path style="fill:none;stroke-width:0.3;stroke-linecap:butt;stroke-linejoin:miter;stroke:rgb(81.960784%,44.313725%,5.098039%);stroke-opacity:1;stroke-miterlimit:4;" d="M 452 335 C 454.25 334 459.8125 333.8125 461 331 C 460.5625 331.75 453.0625 334.5 452 335 Z M 452 335 " transform="matrix(0.0625,0,0,0.0625,0,0)"/>
<path style="fill:none;stroke-width:0.3;stroke-linecap:butt;stroke-linejoin:miter;stroke:rgb(99.215686%,95.686275%,63.921569%);stroke-opacity:1;stroke-miterlimit:4;" d="M 291 337 C 287.4375 339.4375 281.5 343 277.6875 344.6875 C 273.875 346.375 266.9375 351.5625 263 351 C 261.4375 350.75 258.0625 347.0625 257 346 C 254.5 354.0625 250.5625 357 248.75 365.75 C 247 374.5625 256.4375 369.25 260.9375 364.9375 C 265.4375 360.5625 272.125 357.1875 276.9375 352.9375 C 281.75 348.6875 287.25 344.5 293 342 C 298.625 358.6875 306.625 374.5625 313 391 C 318.875 377.875 321.75 362.75 327 349 C 333.1875 353.4375 338.3125 354.5 344.3125 359.6875 C 350.3125 364.9375 355.375 363.875 361.75 370.25 C 368.125 376.625 375.5 371.625 368.25 365.75 C 361 359.875 364.5 352.9375 357 350 C 346.875 353.75 332.25 347.9375 332 336 C 325.4375 339.375 319.1875 340.25 312 342 C 304.8125 343.75 297.4375 336.6875 291 337 Z M 291 337 " transform="matrix(0.0625,0,0,0.0625,0,0)"/>
<path style="fill:none;stroke-width:0.3;stroke-linecap:butt;stroke-linejoin:miter;stroke:rgb(39.607843%,37.647059%,18.823529%);stroke-opacity:1;stroke-miterlimit:4;" d="M 257 346 C 258.0625 347.0625 261.4375 350.75 263 351 C 261.4375 346.3125 253.9375 344.125 252 340 C 252.6875 341.875 255.5625 344.5625 257 346 Z M 257 346 " transform="matrix(0.0625,0,0,0.0625,0,0)"/>
<path style=" stroke:none;fill-rule:nonzero;fill:rgb(95.686275%,26.27451%,20.784314%);fill-opacity:0.94902;" d="M 9.125 13.3125 C 9.382812 13.289062 9.632812 13.328125 9.875 13.25 C 9.992188 13.414062 10.148438 13.578125 10.3125 13.6875 C 8.128906 10.507812 6.144531 7.199219 4 4 C 8.132812 6.597656 12.179688 9.386719 16.3125 12 C 16.601562 9.160156 17.015625 6.351562 17.25 3.5 C 18.535156 5.933594 19.675781 8.503906 20.875 11 C 23.589844 8.722656 26.175781 6.191406 28.875 3.875 C 27.613281 7.15625 26.300781 10.417969 25 13.6875 C 25.769531 13.511719 26.542969 13.375 27.3125 13.1875 C 27.429688 13.351562 27.585938 13.515625 27.75 13.625 C 28.199219 13.6875 28.820312 13.132812 29.3125 13.1875 C 28.945312 13.765625 28.546875 14.351562 28.125 14.875 C 28.171875 15.238281 28.289062 15.671875 28.3125 16 C 28.5 15.523438 29.179688 15.113281 29.3125 14.625 C 29.285156 14.335938 29.332031 14.039062 29.3125 13.75 C 29.578125 13.652344 29.859375 13.609375 30.125 13.5 C 30.410156 12.933594 30.914062 12.449219 31.1875 11.875 C 29.46875 12.304688 27.765625 12.777344 26.0625 13.25 C 27.578125 9.167969 29.3125 5.148438 30.8125 1.0625 C 27.554688 3.910156 24.375 6.882812 21.125 9.75 C 19.75 6.738281 18.316406 3.683594 16.8125 0.75 C 16.445312 4.042969 16.039062 7.328125 15.6875 10.625 C 10.855469 7.617188 6.148438 4.3125 1.3125 1.3125 C 1.574219 1.71875 1.820312 2.140625 2.078125 2.546875 C 2.335938 2.953125 2.644531 3.328125 2.878906 3.746094 C 3.113281 4.160156 3.433594 4.542969 3.671875 4.953125 C 3.910156 5.363281 4.183594 5.722656 4.441406 6.121094 C 4.703125 6.519531 4.945312 6.945312 5.230469 7.332031 C 5.515625 7.71875 5.722656 8.171875 6.015625 8.546875 C 6.304688 8.921875 6.496094 9.359375 6.765625 9.734375 C 7.035156 10.109375 7.308594 10.566406 7.566406 10.933594 C 7.828125 11.296875 8.070312 11.835938 8.359375 12.140625 C 8.648438 12.445312 8.761719 13.152344 9.125 13.3125 Z M 9.125 13.3125 "/>
<path style=" stroke:none;fill-rule:nonzero;fill:rgb(99.607843%,62.352941%,0.392157%);fill-opacity:1;" d="M 10.3125 13.6875 C 10.386719 13.792969 10.441406 13.902344 10.5 14 C 10.546875 14.078125 10.644531 14.285156 10.75 14.3125 C 11.125 14.0625 11.8125 13.910156 12.25 13.75 C 11.292969 12.175781 10.230469 10.648438 9.3125 9.0625 C 11.753906 10.617188 14.167969 12.308594 16.5625 13.9375 C 16.902344 13.808594 17.296875 13.640625 17.625 13.5625 C 17.796875 13.261719 17.578125 12.726562 17.6875 12.375 C 17.796875 12.023438 17.675781 11.5625 17.75 11.1875 C 17.824219 10.8125 17.753906 10.324219 17.8125 9.9375 C 17.871094 9.550781 17.84375 9.140625 17.875 8.75 C 17.90625 8.359375 17.925781 7.917969 18 7.5625 C 18.859375 9.839844 19.742188 12.105469 20.625 14.375 C 22.480469 12.371094 24.230469 10.226562 26.125 8.25 C 25.234375 10.335938 24.125 12.347656 23.25 14.4375 C 23.761719 14.332031 24.222656 14.238281 24.5625 14.75 C 24.527344 14.421875 24.671875 14.140625 24.625 13.8125 C 24.734375 13.722656 24.890625 13.777344 25 13.6875 C 26.300781 10.417969 27.613281 7.15625 28.875 3.875 C 26.175781 6.191406 23.589844 8.722656 20.875 11 C 19.675781 8.503906 18.535156 5.933594 17.25 3.5 C 17.015625 6.351562 16.601562 9.160156 16.3125 12 C 12.179688 9.386719 8.132812 6.597656 4 4 C 6.144531 7.199219 8.128906 10.507812 10.3125 13.6875 Z M 10.3125 13.6875 "/>
<path style=" stroke:none;fill-rule:nonzero;fill:rgb(99.607843%,91.372549%,23.137255%);fill-opacity:1;" d="M 17.625 13.5625 C 17.777344 13.527344 17.96875 13.511719 18.125 13.5 C 18.246094 12.328125 18.210938 11.074219 18.375 9.9375 C 18.796875 11.253906 19.503906 12.605469 19.8125 13.875 C 20.117188 14.078125 20.640625 14.554688 20.8125 14.875 C 21.976562 13.726562 22.996094 12.417969 24.125 11.25 C 23.691406 12.378906 23.050781 13.433594 22.625 14.5625 C 22.828125 14.515625 23.046875 14.480469 23.25 14.4375 C 24.125 12.347656 25.234375 10.335938 26.125 8.25 C 24.230469 10.226562 22.480469 12.371094 20.625 14.375 C 19.742188 12.105469 18.859375 9.839844 18 7.5625 C 17.925781 7.917969 17.90625 8.359375 17.875 8.75 C 17.84375 9.140625 17.871094 9.550781 17.8125 9.9375 C 17.753906 10.324219 17.824219 10.8125 17.75 11.1875 C 17.675781 11.5625 17.796875 12.023438 17.6875 12.375 C 17.578125 12.726562 17.796875 13.261719 17.625 13.5625 Z M 17.625 13.5625 "/>
<path style=" stroke:none;fill-rule:nonzero;fill:rgb(99.215686%,92.156863%,34.901961%);fill-opacity:1;" d="M 12.25 13.75 C 12.453125 13.675781 12.738281 13.550781 12.941406 13.503906 C 13.148438 13.457031 13.425781 13.21875 13.625 13.25 C 13.789062 13.273438 14.25 13.792969 14.3125 13.9375 C 14.566406 14.523438 14.410156 15.308594 14.5625 15.9375 C 14.714844 16.566406 14.726562 17.289062 14.8125 17.9375 C 14.933594 17.984375 15.277344 17.910156 15.375 18 C 15.316406 17.390625 15.015625 17.066406 14.875 16.5 C 14.734375 15.929688 14.667969 15.386719 14.5625 14.8125 C 15.238281 14.554688 15.878906 14.183594 16.5625 13.9375 C 14.167969 12.308594 11.753906 10.617188 9.3125 9.0625 C 10.230469 10.648438 11.292969 12.175781 12.25 13.75 Z M 12.25 13.75 "/>
<path style=" stroke:none;fill-rule:nonzero;fill:rgb(99.607843%,94.117647%,48.235294%);fill-opacity:1;" d="M 18.125 13.5 C 18.6875 13.453125 19.347656 13.5625 19.8125 13.875 C 19.503906 12.605469 18.796875 11.253906 18.375 9.9375 C 18.210938 11.074219 18.246094 12.328125 18.125 13.5 Z M 18.125 13.5 "/>
<path style=" stroke:none;fill-rule:nonzero;fill:rgb(98.823529%,94.117647%,52.156863%);fill-opacity:1;" d="M 20.8125 14.875 C 21.019531 15.257812 21.101562 15.925781 21.0625 16.375 C 21.085938 16.417969 21.234375 16.460938 21.25 16.5 C 21.328125 15.941406 21.332031 15.367188 21.4375 14.8125 C 21.839844 14.761719 22.242188 14.691406 22.625 14.5625 C 23.050781 13.433594 23.691406 12.378906 24.125 11.25 C 22.996094 12.417969 21.976562 13.726562 20.8125 14.875 Z M 20.8125 14.875 "/>
<path style=" stroke:none;fill-rule:nonzero;fill:rgb(0%,0%,0%);fill-opacity:1;" d="M 4.5625 14.4375 C 4.539062 14.699219 4.535156 14.929688 4.5 15.1875 C 4.476562 15.355469 4.417969 15.507812 4.4375 15.6875 C 4.316406 15.597656 4.402344 15.386719 4.375 15.25 C 4.34375 15.007812 4.320312 14.570312 4.125 14.375 C 3.609375 13.859375 3.34375 13.984375 2.75 14.25 C 2.5 14.363281 1.773438 14.664062 1.75 14.9375 C 1.945312 15.511719 2.058594 16.089844 2.1875 16.6875 C 2.320312 17.28125 2.480469 17.839844 2.625 18.4375 C 2.769531 19.035156 2.855469 19.628906 3.015625 20.234375 C 3.171875 20.84375 3.171875 21.300781 3.640625 21.796875 C 4.109375 22.292969 4.535156 21.914062 5.144531 21.769531 C 5.753906 21.625 5.671875 20.828125 5.855469 20.292969 C 6.035156 19.753906 6.085938 19.074219 6.3125 18.5625 C 6.617188 19.148438 6.550781 19.726562 6.828125 20.359375 C 7.105469 20.992188 7.765625 20.972656 8.3125 20.875 C 9.152344 20.722656 9.074219 20.09375 9.25 19.375 C 9.382812 18.835938 9.488281 18.289062 9.625 17.75 C 9.6875 17.503906 9.757812 17.25 9.8125 17 C 9.90625 16.5625 10.03125 16.128906 10.125 15.6875 C 10.226562 15.210938 10.570312 14.484375 10.5 14 C 10.441406 13.902344 10.386719 13.792969 10.3125 13.6875 C 10.148438 13.578125 9.992188 13.414062 9.875 13.25 C 9.632812 13.328125 9.382812 13.289062 9.125 13.3125 C 8.707031 13.4375 8.261719 13.433594 7.8125 13.5 C 7.75 13.976562 7.816406 14.394531 7.6875 14.875 C 7.59375 14.476562 7.578125 14.101562 7.5625 13.75 C 7.289062 13.632812 6.996094 13.335938 6.875 13.0625 C 6.132812 13.242188 5.421875 13.527344 4.6875 13.625 C 4.625 13.90625 4.585938 14.171875 4.5625 14.4375 M 7.625 18.375 C 7.710938 16.804688 7.910156 15.257812 8 13.6875 C 8.546875 13.648438 9.078125 13.539062 9.625 13.5 C 9.53125 14.007812 9.421875 14.492188 9.3125 15 C 9.203125 15.507812 9.023438 15.980469 8.9375 16.5 C 8.855469 17.023438 8.640625 17.464844 8.566406 18.003906 C 8.492188 18.542969 8.261719 18.945312 8.203125 19.515625 C 8.140625 20.082031 7.484375 20.03125 7 20.1875 C 6.660156 18.960938 6.292969 17.742188 6 16.5 C 5.554688 16.875 5.53125 17.664062 5.375 18.3125 C 5.21875 18.960938 4.957031 19.550781 4.878906 20.253906 C 4.804688 20.960938 4.121094 21.164062 3.4375 21.25 C 3.3125 20.574219 3.132812 19.859375 3 19.1875 C 2.867188 18.515625 2.617188 17.847656 2.503906 17.183594 C 2.394531 16.519531 2.125 15.789062 2.042969 15.144531 C 1.960938 14.5 3.121094 14.550781 3.5 14.1875 C 3.488281 14.648438 3.589844 15.1875 3.625 15.625 C 3.660156 16.0625 3.695312 16.664062 3.75 17.0625 C 3.804688 17.460938 3.890625 18.15625 3.894531 18.480469 C 3.898438 18.800781 4.011719 19.800781 4.207031 19.519531 C 4.402344 19.234375 4.253906 18.507812 4.375 18.125 C 4.496094 17.738281 4.441406 17.140625 4.519531 16.707031 C 4.597656 16.277344 4.632812 15.765625 4.6875 15.3125 C 4.742188 14.855469 4.808594 14.347656 4.8125 13.875 C 5.359375 13.773438 5.855469 13.46875 6.417969 13.417969 C 6.980469 13.363281 6.785156 14.390625 6.9375 14.875 C 7.085938 15.363281 7.027344 16.175781 7.1875 16.6875 C 7.347656 17.203125 7.152344 18.132812 7.625 18.375 Z M 7.625 18.375 "/>
<path style=" stroke:none;fill-rule:nonzero;fill:rgb(0%,0%,0%);fill-opacity:1;" d="M 25 13.6875 C 24.890625 13.777344 24.734375 13.722656 24.625 13.8125 C 24.671875 14.140625 24.527344 14.421875 24.5625 14.75 C 24.222656 14.238281 23.761719 14.332031 23.25 14.4375 C 23.046875 14.480469 22.828125 14.515625 22.625 14.5625 C 22.242188 14.691406 21.839844 14.761719 21.4375 14.8125 C 21.332031 15.367188 21.328125 15.941406 21.25 16.5 C 21.144531 17.234375 21.050781 18.003906 21 18.75 C 20.949219 19.496094 20.734375 20.25 20.75 21 C 20.765625 21.746094 21.679688 22.109375 22.3125 21.875 C 22.609375 21.765625 22.625 21.175781 22.6875 20.875 C 22.734375 20.644531 22.824219 20.417969 22.875 20.1875 C 22.914062 20.023438 22.96875 19.828125 23 19.6875 C 23.054688 19.460938 22.992188 19.160156 23.1875 19 C 23.203125 19.28125 23.289062 19.546875 23.375 19.8125 C 23.429688 19.996094 23.457031 20.183594 23.5 20.375 C 23.523438 20.472656 23.539062 20.585938 23.5625 20.6875 C 23.601562 20.851562 23.695312 21.066406 23.75 21.25 C 23.96875 21.96875 24.636719 22.398438 25.3125 21.9375 C 25.394531 21.605469 25.480469 21.273438 25.5625 20.9375 C 25.597656 20.8125 25.652344 20.6875 25.6875 20.5625 C 25.765625 20.273438 25.863281 19.953125 25.9375 19.6875 C 26.113281 19.050781 26.214844 18.390625 26.375 17.75 C 26.546875 17.9375 26.5625 18.238281 26.5625 18.5 C 26.609375 18.683594 26.703125 18.910156 26.75 19.125 C 26.816406 19.414062 26.867188 19.707031 26.9375 20 C 27.074219 20.578125 27.625 21.222656 28.25 20.9375 C 28.316406 20.90625 28.785156 20.734375 28.8125 20.6875 C 28.894531 20.492188 28.777344 20.023438 28.75 19.8125 C 28.601562 18.578125 28.40625 17.238281 28.3125 16 C 28.289062 15.671875 28.171875 15.238281 28.125 14.875 C 28.066406 14.421875 28.113281 13.9375 27.75 13.625 C 27.585938 13.515625 27.429688 13.351562 27.3125 13.1875 C 26.542969 13.375 25.769531 13.511719 25 13.6875 M 27.1875 13.4375 C 27.457031 15.601562 27.6875 17.78125 28 19.9375 C 27.726562 19.941406 27.523438 20.167969 27.25 20.1875 C 26.808594 18.660156 26.578125 17.054688 26.0625 15.5625 C 25.550781 16.429688 25.570312 17.695312 25.1875 18.625 C 24.804688 19.554688 24.984375 20.992188 23.9375 21.3125 C 23.859375 20.792969 23.714844 20.246094 23.5625 19.75 C 23.410156 19.253906 23.347656 18.683594 23.167969 18.207031 C 22.988281 17.734375 23.050781 17.035156 22.625 16.8125 C 22.339844 18.234375 21.964844 19.636719 21.6875 21.0625 C 21.4375 21.0625 21.1875 21.0625 20.9375 21.0625 C 21.1875 19.046875 21.386719 17.019531 21.625 15 C 22.402344 14.890625 23.148438 14.636719 23.9375 14.5625 C 23.910156 15.667969 24.046875 16.785156 24.0625 17.875 C 24.078125 18.964844 24.40625 18.050781 24.375 17.5625 C 24.34375 17.074219 24.632812 16.621094 24.582031 16.082031 C 24.53125 15.542969 24.859375 15.140625 24.808594 14.558594 C 24.757812 13.976562 25.207031 13.796875 25.75 13.75 C 26.296875 13.703125 26.65625 13.484375 27.1875 13.4375 Z M 27.1875 13.4375 "/>
<path style=" stroke:none;fill-rule:nonzero;fill:rgb(99.215686%,61.176471%,0.392157%);fill-opacity:1;" d="M 27.75 13.625 C 28.113281 13.9375 28.066406 14.421875 28.125 14.875 C 28.546875 14.351562 28.945312 13.765625 29.3125 13.1875 C 28.820312 13.132812 28.199219 13.6875 27.75 13.625 Z M 27.75 13.625 "/>
<path style=" stroke:none;fill-rule:nonzero;fill:rgb(0%,0%,0%);fill-opacity:1;" d="M 30.125 13.5 C 29.859375 13.609375 29.578125 13.652344 29.3125 13.75 C 29.332031 14.039062 29.285156 14.335938 29.3125 14.625 C 29.386719 15.425781 29.371094 16.390625 29.4375 17.1875 C 29.503906 17.984375 29.308594 18.808594 29.9375 19.375 C 29.609375 19.46875 29.40625 19.777344 29.1875 20 C 28.972656 20.46875 29.308594 20.871094 29.625 21.1875 C 30.191406 21.800781 31.042969 21.851562 31.640625 21.203125 C 32.238281 20.554688 31.519531 19.839844 31 19.375 C 31.679688 19.265625 31.375 18.328125 31.5 17.75 C 31.628906 17.171875 31.59375 16.417969 31.691406 15.816406 C 31.789062 15.21875 31.847656 14.566406 32 14 L 32 13.875 C 31.703125 13.757812 31.417969 13.070312 31.078125 13.203125 C 30.738281 13.335938 30.460938 13.386719 30.125 13.5 M 29.5625 14.4375 C 29.546875 14.28125 29.410156 14.03125 29.5625 13.875 C 29.714844 13.71875 30.15625 13.800781 30.355469 13.667969 C 30.554688 13.535156 30.914062 13.570312 31.125 13.4375 C 30.988281 13.96875 31.0625 14.507812 30.917969 15.042969 C 30.769531 15.574219 30.90625 16.210938 30.75 16.75 C 30.59375 17.289062 30.863281 17.933594 30.5625 18.4375 C 30.261719 18.945312 29.5 18.703125 29.6875 18.0625 C 29.875 17.421875 29.5 16.929688 29.5625 16.3125 C 29.628906 15.691406 29.511719 15.058594 29.5625 14.4375 M 30.75 19.5 C 31.558594 19.746094 30.546875 21.3125 29.746094 20.816406 C 28.945312 20.320312 29.8125 19.214844 30.75 19.5 Z M 30.75 19.5 "/>
<path style=" stroke:none;fill-rule:nonzero;fill:rgb(0%,0%,0%);fill-opacity:1;" d="M 12.25 13.75 C 11.8125 13.910156 11.125 14.0625 10.75 14.3125 C 10.4375 14.519531 10.488281 15.328125 10.4375 15.6875 C 10.375 16.125 10.316406 16.566406 10.25 17 C 10.203125 17.3125 10.171875 17.628906 10.125 17.9375 C 10.03125 18.5625 9.957031 19.191406 9.875 19.8125 C 9.828125 20.171875 9.808594 20.519531 9.75 20.875 C 9.660156 21.410156 10.03125 21.605469 10.375 22 C 10.980469 21.769531 11.292969 22.027344 11.5 21.3125 C 11.722656 20.53125 12.511719 20.296875 13.25 20 C 13.226562 20.097656 13.339844 20.148438 13.3125 20.25 C 13.515625 20.710938 13.664062 21.167969 14.125 21.5 C 14.496094 21.386719 14.828125 21.160156 15.1875 21 C 15.363281 20.609375 14.984375 19.945312 15 19.5 C 15.015625 19.054688 14.871094 18.394531 14.8125 17.9375 C 14.726562 17.289062 14.714844 16.566406 14.5625 15.9375 C 14.410156 15.308594 14.566406 14.523438 14.3125 13.9375 C 14.175781 13.679688 13.734375 13.542969 13.625 13.25 C 13.425781 13.21875 13.148438 13.457031 12.941406 13.503906 C 12.738281 13.550781 12.453125 13.675781 12.25 13.75 M 13.5 13.5625 C 13.789062 15.808594 14.097656 18.046875 14.3125 20.3125 C 14.074219 20.363281 13.863281 20.511719 13.625 20.5625 C 13.453125 20.003906 13.324219 19.429688 13.125 18.875 C 12.40625 19.0625 12.042969 19.542969 11.308594 19.746094 C 10.570312 19.949219 10.875 21.226562 9.9375 21.125 C 10.203125 18.910156 10.507812 16.707031 10.8125 14.5 C 11.734375 14.273438 12.578125 13.785156 13.5 13.5625 Z M 13.5 13.5625 "/>
<path style=" stroke:none;fill-rule:nonzero;fill:rgb(50.980392%,48.235294%,23.529412%);fill-opacity:1;" d="M 14.3125 13.9375 C 14.25 13.792969 13.789062 13.273438 13.625 13.25 C 13.734375 13.542969 14.175781 13.679688 14.3125 13.9375 Z M 14.3125 13.9375 "/>
<path style=" stroke:none;fill-rule:nonzero;fill:rgb(94.117647%,25.490196%,20.784314%);fill-opacity:1;" d="M 7.625 18.375 C 7.152344 18.132812 7.347656 17.203125 7.1875 16.6875 C 7.027344 16.175781 7.085938 15.363281 6.9375 14.875 C 6.785156 14.390625 6.980469 13.363281 6.417969 13.417969 C 5.855469 13.46875 5.359375 13.773438 4.8125 13.875 C 4.808594 14.347656 4.742188 14.855469 4.6875 15.3125 C 4.632812 15.765625 4.597656 16.277344 4.519531 16.707031 C 4.441406 17.140625 4.496094 17.738281 4.375 18.125 C 4.253906 18.507812 4.402344 19.234375 4.207031 19.519531 C 4.011719 19.800781 3.898438 18.800781 3.894531 18.480469 C 3.890625 18.15625 3.804688 17.460938 3.75 17.0625 C 3.695312 16.664062 3.660156 16.0625 3.625 15.625 C 3.589844 15.1875 3.488281 14.648438 3.5 14.1875 C 3.121094 14.550781 1.960938 14.5 2.042969 15.144531 C 2.125 15.789062 2.394531 16.519531 2.503906 17.183594 C 2.617188 17.847656 2.867188 18.515625 3 19.1875 C 3.132812 19.859375 3.3125 20.574219 3.4375 21.25 C 4.121094 21.164062 4.804688 20.960938 4.878906 20.253906 C 4.957031 19.550781 5.21875 18.960938 5.375 18.3125 C 5.53125 17.664062 5.554688 16.875 6 16.5 C 6.292969 17.742188 6.660156 18.960938 7 20.1875 C 7.484375 20.03125 8.140625 20.082031 8.203125 19.515625 C 8.261719 18.945312 8.492188 18.542969 8.566406 18.003906 C 8.640625 17.464844 8.855469 17.023438 8.9375 16.5 C 9.023438 15.980469 9.203125 15.507812 9.3125 15 C 9.421875 14.492188 9.53125 14.007812 9.625 13.5 C 9.078125 13.539062 8.546875 13.648438 8 13.6875 C 7.910156 15.257812 7.710938 16.804688 7.625 18.375 Z M 7.625 18.375 "/>
<path style=" stroke:none;fill-rule:nonzero;fill:rgb(94.117647%,25.490196%,20.784314%);fill-opacity:1;" d="M 27.1875 13.4375 C 26.65625 13.484375 26.296875 13.703125 25.75 13.75 C 25.207031 13.796875 24.757812 13.976562 24.808594 14.558594 C 24.859375 15.140625 24.53125 15.542969 24.582031 16.082031 C 24.632812 16.621094 24.34375 17.074219 24.375 17.5625 C 24.40625 18.050781 24.078125 18.964844 24.0625 17.875 C 24.046875 16.785156 23.910156 15.667969 23.9375 14.5625 C 23.148438 14.636719 22.402344 14.890625 21.625 15 C 21.386719 17.019531 21.1875 19.046875 20.9375 21.0625 C 21.1875 21.0625 21.4375 21.0625 21.6875 21.0625 C 21.964844 19.636719 22.339844 18.234375 22.625 16.8125 C 23.050781 17.035156 22.988281 17.734375 23.167969 18.207031 C 23.347656 18.683594 23.410156 19.253906 23.5625 19.75 C 23.714844 20.246094 23.859375 20.792969 23.9375 21.3125 C 24.984375 20.992188 24.804688 19.554688 25.1875 18.625 C 25.570312 17.695312 25.550781 16.429688 26.0625 15.5625 C 26.578125 17.054688 26.808594 18.660156 27.25 20.1875 C 27.523438 20.167969 27.726562 19.941406 28 19.9375 C 27.6875 17.78125 27.457031 15.601562 27.1875 13.4375 Z M 27.1875 13.4375 "/>
<path style=" stroke:none;fill-rule:nonzero;fill:rgb(93.72549%,25.490196%,20.784314%);fill-opacity:1;" d="M 29.5625 13.875 C 29.5625 14.0625 29.5625 14.25 29.5625 14.4375 C 29.511719 15.058594 29.628906 15.691406 29.5625 16.3125 C 29.5 16.929688 29.875 17.421875 29.6875 18.0625 C 29.5 18.703125 30.261719 18.945312 30.5625 18.4375 C 30.863281 17.933594 30.59375 17.289062 30.75 16.75 C 30.90625 16.210938 30.769531 15.574219 30.917969 15.042969 C 31.0625 14.507812 30.988281 13.96875 31.125 13.4375 C 30.914062 13.570312 30.554688 13.535156 30.355469 13.667969 C 30.15625 13.800781 29.714844 13.71875 29.5625 13.875 Z M 29.5625 13.875 "/>
<path style=" stroke:none;fill-rule:nonzero;fill:rgb(0%,0%,0%);fill-opacity:1;" d="M 17.625 13.5625 C 17.296875 13.640625 16.902344 13.808594 16.5625 13.9375 C 15.878906 14.183594 15.238281 14.554688 14.5625 14.8125 C 14.667969 15.386719 14.734375 15.929688 14.875 16.5 C 15.015625 17.066406 15.316406 17.390625 15.375 18 C 15.464844 18.933594 15.542969 19.976562 15.6875 20.9375 C 15.699219 21.007812 15.726562 21.183594 15.75 21.25 C 15.871094 21.507812 16.339844 21.644531 16.4375 21.9375 C 16.683594 21.972656 17.117188 21.648438 17.355469 21.542969 C 17.59375 21.4375 17.964844 21.214844 18.1875 21.0625 C 19.761719 19.96875 20.894531 18.273438 21.0625 16.375 C 21.101562 15.925781 21.019531 15.257812 20.8125 14.875 C 20.640625 14.554688 20.117188 14.078125 19.8125 13.875 C 19.347656 13.5625 18.6875 13.453125 18.125 13.5 C 17.96875 13.511719 17.777344 13.527344 17.625 13.5625 M 15.9375 21 C 15.738281 19.570312 15.691406 18.101562 15.4375 16.6875 C 15.015625 16.960938 15.09375 16.386719 15 16.0625 C 14.90625 15.734375 14.867188 15.285156 14.8125 14.9375 C 16.148438 14.484375 17.953125 13.097656 19.441406 13.933594 C 20.929688 14.765625 20.0625 17.195312 19.328125 18.328125 C 18.589844 19.460938 17.234375 20.601562 15.9375 21 Z M 15.9375 21 "/>
<path style=" stroke:none;fill-rule:nonzero;fill:rgb(94.117647%,25.490196%,20.784314%);fill-opacity:1;" d="M 13.5 13.5625 C 12.578125 13.785156 11.734375 14.273438 10.8125 14.5 C 10.507812 16.707031 10.203125 18.910156 9.9375 21.125 C 10.875 21.226562 10.570312 19.949219 11.308594 19.746094 C 12.042969 19.542969 12.40625 19.0625 13.125 18.875 C 13.324219 19.429688 13.453125 20.003906 13.625 20.5625 C 13.863281 20.511719 14.074219 20.363281 14.3125 20.3125 C 14.097656 18.046875 13.789062 15.808594 13.5 13.5625 M 12.9375 17.8125 C 12.4375 18.054688 11.929688 18.34375 11.375 18.4375 C 11.53125 17.414062 11.863281 16.433594 12.125 15.4375 C 12.636719 16.019531 12.605469 17.0625 12.9375 17.8125 Z M 12.9375 17.8125 "/>
<path style=" stroke:none;fill-rule:nonzero;fill:rgb(94.509804%,25.882353%,20.784314%);fill-opacity:1;" d="M 15.9375 21 C 17.234375 20.601562 18.589844 19.460938 19.328125 18.328125 C 20.0625 17.195312 20.929688 14.765625 19.441406 13.933594 C 17.953125 13.097656 16.148438 14.484375 14.8125 14.9375 C 14.867188 15.285156 14.90625 15.734375 15 16.0625 C 15.09375 16.386719 15.015625 16.960938 15.4375 16.6875 C 15.691406 18.101562 15.738281 19.570312 15.9375 21 M 16.75 18.3125 C 16.75 18.035156 16.789062 17.730469 16.8125 17.5 C 16.8125 16.828125 16.546875 15.535156 17.292969 15.355469 C 18.039062 15.171875 18.941406 14.972656 18.75 16.1875 C 18.558594 17.402344 18.078125 19.085938 16.75 19.5 C 16.75 19.105469 16.75 18.707031 16.75 18.3125 Z M 16.75 18.3125 "/>
<path style=" stroke:none;fill-rule:nonzero;fill:rgb(50.980392%,13.72549%,10.980392%);fill-opacity:1;" d="M 29.5625 14.4375 C 29.5625 14.25 29.5625 14.0625 29.5625 13.875 C 29.410156 14.03125 29.546875 14.28125 29.5625 14.4375 Z M 29.5625 14.4375 "/>
<path style=" stroke:none;fill-rule:nonzero;fill:rgb(88.627451%,24.705882%,19.215686%);fill-opacity:1;" d="M 10.125 15.6875 C 10.230469 15.6875 10.332031 15.6875 10.4375 15.6875 C 10.488281 15.328125 10.4375 14.519531 10.75 14.3125 C 10.644531 14.285156 10.546875 14.078125 10.5 14 C 10.570312 14.484375 10.226562 15.210938 10.125 15.6875 Z M 10.125 15.6875 "/>
<path style=" stroke:none;fill-rule:nonzero;fill:rgb(94.509804%,25.490196%,20.784314%);fill-opacity:0.839216;" d="M 1.75 14.9375 C 1.773438 14.664062 2.5 14.363281 2.75 14.25 C 2.039062 14.191406 1.324219 14.15625 0.625 14.0625 C 0.8125 14.480469 1.46875 14.578125 1.75 14.9375 Z M 1.75 14.9375 "/>
<path style=" stroke:none;fill-rule:nonzero;fill:rgb(86.27451%,23.921569%,18.823529%);fill-opacity:0.929412;" d="M 4.375 15.25 C 4.40625 15.175781 4.476562 15.226562 4.5 15.1875 C 4.535156 14.929688 4.539062 14.699219 4.5625 14.4375 C 4.496094 14.34375 4.21875 14.402344 4.125 14.375 C 4.320312 14.570312 4.34375 15.007812 4.375 15.25 Z M 4.375 15.25 "/>
<path style=" stroke:none;fill-rule:nonzero;fill:rgb(0%,0%,0%);fill-opacity:0.0392157;" d="M 28.3125 16 C 28.40625 17.238281 28.601562 18.578125 28.75 19.8125 C 28.839844 19.914062 29.121094 19.835938 29.1875 20 C 29.40625 19.777344 29.609375 19.46875 29.9375 19.375 C 29.308594 18.808594 29.503906 17.984375 29.4375 17.1875 C 29.371094 16.390625 29.386719 15.425781 29.3125 14.625 C 29.179688 15.113281 28.5 15.523438 28.3125 16 Z M 28.3125 16 "/>
<path style=" stroke:none;fill-rule:nonzero;fill:rgb(85.490196%,53.333333%,0%);fill-opacity:1;" d="M 4.375 15.25 C 4.402344 15.386719 4.316406 15.597656 4.4375 15.6875 C 4.417969 15.507812 4.476562 15.355469 4.5 15.1875 C 4.476562 15.226562 4.40625 15.175781 4.375 15.25 Z M 4.375 15.25 "/>
<path style=" stroke:none;fill-rule:nonzero;fill:rgb(0%,0%,0%);fill-opacity:1;" d="M 16.8125 17.5 C 16.8125 17.777344 16.773438 18.082031 16.75 18.3125 C 16.75 18.707031 16.75 19.105469 16.75 19.5 C 18.078125 19.085938 18.558594 17.402344 18.75 16.1875 C 18.941406 14.972656 18.039062 15.171875 17.292969 15.355469 C 16.546875 15.535156 16.8125 16.828125 16.8125 17.5 M 17.625 16.9375 C 17.625 16.6875 17.558594 16.414062 17.75 16.25 C 17.941406 16.085938 18.324219 16.101562 18.5625 16.0625 C 18.464844 16.953125 18.175781 17.804688 17.6875 18.5625 C 17.542969 18.078125 17.664062 17.46875 17.625 16.9375 Z M 17.625 16.9375 "/>
<path style=" stroke:none;fill-rule:nonzero;fill:rgb(0%,0%,0%);fill-opacity:1;" d="M 12.9375 17.8125 C 12.605469 17.0625 12.636719 16.019531 12.125 15.4375 C 11.863281 16.433594 11.53125 17.414062 11.375 18.4375 C 11.929688 18.34375 12.4375 18.054688 12.9375 17.8125 M 12.5625 17.4375 C 12.832031 17.761719 12.378906 17.921875 12.5625 17.4375 Z M 12.5625 17.4375 "/>
<path style=" stroke:none;fill-rule:nonzero;fill:rgb(95.294118%,60%,0%);fill-opacity:1;" d="M 9.8125 17 C 9.917969 16.9375 10.148438 17.066406 10.25 17 C 10.316406 16.566406 10.375 16.125 10.4375 15.6875 C 10.332031 15.6875 10.230469 15.6875 10.125 15.6875 C 10.03125 16.128906 9.90625 16.5625 9.8125 17 Z M 9.8125 17 "/>
<path style=" stroke:none;fill-rule:nonzero;fill:rgb(96.078431%,93.72549%,71.764706%);fill-opacity:1;" d="M 17.75 16.25 C 17.652344 16.367188 17.636719 16.816406 17.625 16.9375 C 17.664062 17.46875 17.542969 18.078125 17.6875 18.5625 C 18.175781 17.804688 18.464844 16.953125 18.5625 16.0625 C 18.324219 16.101562 17.941406 16.085938 17.75 16.25 Z M 17.75 16.25 "/>
<path style=" stroke:none;fill-rule:nonzero;fill:rgb(45.490196%,44.313725%,32.156863%);fill-opacity:1;" d="M 17.625 16.9375 C 17.636719 16.816406 17.652344 16.367188 17.75 16.25 C 17.558594 16.414062 17.625 16.6875 17.625 16.9375 Z M 17.625 16.9375 "/>
<path style=" stroke:none;fill-rule:nonzero;fill:rgb(98.039216%,96.078431%,77.647059%);fill-opacity:1;" d="M 18.1875 21.0625 C 18.589844 21.042969 19.050781 21.484375 19.5 21.375 C 19.949219 21.265625 20.339844 21.210938 20.75 21 C 20.734375 20.25 20.949219 19.496094 21 18.75 C 21.050781 18.003906 21.144531 17.234375 21.25 16.5 C 21.234375 16.460938 21.085938 16.417969 21.0625 16.375 C 20.894531 18.273438 19.761719 19.96875 18.1875 21.0625 Z M 18.1875 21.0625 "/>
<path style=" stroke:none;fill-rule:nonzero;fill:rgb(96.470588%,88.627451%,21.960784%);fill-opacity:1;" d="M 9.625 17.75 C 9.6875 17.882812 10.019531 17.871094 10.125 17.9375 C 10.171875 17.628906 10.203125 17.3125 10.25 17 C 10.148438 17.066406 9.917969 16.9375 9.8125 17 C 9.757812 17.25 9.6875 17.503906 9.625 17.75 Z M 9.625 17.75 "/>
<path style=" stroke:none;fill-rule:nonzero;fill:rgb(76.078431%,70.588235%,21.568627%);fill-opacity:1;" d="M 12.5625 17.4375 C 12.378906 17.921875 12.832031 17.761719 12.5625 17.4375 Z M 12.5625 17.4375 "/>
<path style=" stroke:none;fill-rule:nonzero;fill:rgb(49.803922%,13.72549%,10.980392%);fill-opacity:1;" d="M 16.75 18.3125 C 16.773438 18.082031 16.8125 17.777344 16.8125 17.5 C 16.789062 17.730469 16.75 18.035156 16.75 18.3125 Z M 16.75 18.3125 "/>
<path style=" stroke:none;fill-rule:nonzero;fill:rgb(97.254902%,60.784314%,0%);fill-opacity:1;" d="M 9.25 19.375 C 9.320312 19.585938 9.796875 19.621094 9.875 19.8125 C 9.957031 19.191406 10.03125 18.5625 10.125 17.9375 C 10.019531 17.871094 9.6875 17.882812 9.625 17.75 C 9.488281 18.289062 9.382812 18.835938 9.25 19.375 Z M 9.25 19.375 "/>
<path style=" stroke:none;fill-rule:nonzero;fill:rgb(92.54902%,25.882353%,20.392157%);fill-opacity:0.94902;" d="M 25.9375 19.6875 C 26.03125 19.648438 26.855469 19.925781 26.9375 20 C 26.867188 19.707031 26.816406 19.414062 26.75 19.125 C 26.652344 19.023438 26.4375 19.03125 26.3125 19 C 26.289062 18.792969 26.484375 18.667969 26.5625 18.5 C 26.5625 18.238281 26.546875 17.9375 26.375 17.75 C 26.214844 18.390625 26.113281 19.050781 25.9375 19.6875 Z M 25.9375 19.6875 "/>
<path style=" stroke:none;fill-rule:nonzero;fill:rgb(96.862745%,92.941176%,59.607843%);fill-opacity:1;" d="M 15.1875 21 C 15.238281 20.984375 15.652344 20.914062 15.6875 20.9375 C 15.542969 19.976562 15.464844 18.933594 15.375 18 C 15.277344 17.910156 14.933594 17.984375 14.8125 17.9375 C 14.871094 18.394531 15.015625 19.054688 15 19.5 C 14.984375 19.945312 15.363281 20.609375 15.1875 21 Z M 15.1875 21 "/>
<path style=" stroke:none;fill-rule:nonzero;fill:rgb(0%,0%,0%);fill-opacity:0.0588235;" d="M 26.75 19.125 C 26.703125 18.910156 26.609375 18.683594 26.5625 18.5 C 26.484375 18.667969 26.289062 18.792969 26.3125 19 C 26.4375 19.03125 26.652344 19.023438 26.75 19.125 Z M 26.75 19.125 "/>
<path style=" stroke:none;fill-rule:nonzero;fill:rgb(92.941176%,58.431373%,0%);fill-opacity:1;" d="M 23 19.6875 C 23.054688 19.792969 23.304688 19.738281 23.375 19.8125 C 23.289062 19.546875 23.203125 19.28125 23.1875 19 C 22.992188 19.160156 23.054688 19.460938 23 19.6875 Z M 23 19.6875 "/>
<path style=" stroke:none;fill-rule:nonzero;fill:rgb(95.686275%,26.666667%,20.784314%);fill-opacity:0.94902;" d="M 8.3125 20.875 C 5.871094 22.808594 3.191406 24.601562 0.8125 26.5625 C 4.460938 25.847656 8.109375 25.109375 11.75 24.375 C 10.945312 26.621094 10.109375 28.859375 9.375 31.125 C 12.027344 29.210938 14.617188 27.203125 17.25 25.25 C 18.210938 27.296875 19.015625 29.457031 20.0625 31.4375 C 20.679688 29.496094 21.273438 27.550781 21.9375 25.625 C 24.9375 27.394531 27.847656 29.378906 30.875 31.0625 C 29.300781 28.308594 27.597656 25.601562 26.125 22.8125 C 26.554688 22.789062 26.9375 22.363281 27.332031 22.269531 C 27.730469 22.175781 28.109375 21.800781 28.484375 21.734375 C 28.863281 21.667969 29.265625 21.152344 29.625 21.1875 C 29.308594 20.871094 28.972656 20.46875 29.1875 20 C 29.121094 19.835938 28.839844 19.914062 28.75 19.8125 C 28.777344 20.023438 28.894531 20.492188 28.8125 20.6875 C 28.738281 20.863281 28.390625 20.875 28.25 20.9375 C 27.167969 21.421875 26.117188 22.066406 25 22.5 C 26.109375 24.613281 27.453125 26.636719 28.5625 28.75 C 26.167969 27.375 23.851562 25.757812 21.4375 24.4375 C 20.957031 26.046875 20.472656 27.703125 19.875 29.25 C 19.128906 27.492188 18.316406 25.757812 17.5625 24 C 15.382812 25.667969 13.199219 27.304688 11 28.9375 C 11.566406 27.0625 12.289062 25.230469 12.9375 23.375 C 9.949219 23.839844 6.925781 24.652344 4 25.0625 C 5.957031 23.734375 7.792969 22.183594 9.75 20.875 C 9.808594 20.519531 9.828125 20.171875 9.875 19.8125 C 9.796875 19.621094 9.320312 19.585938 9.25 19.375 C 9.074219 20.09375 9.152344 20.722656 8.3125 20.875 Z M 8.3125 20.875 "/>
<path style=" stroke:none;fill-rule:nonzero;fill:rgb(93.333333%,25.490196%,20.392157%);fill-opacity:1;" d="M 30.75 19.5 C 29.8125 19.214844 28.945312 20.320312 29.746094 20.816406 C 30.546875 21.3125 31.558594 19.746094 30.75 19.5 Z M 30.75 19.5 "/>
<path style=" stroke:none;fill-rule:nonzero;fill:rgb(96.470588%,88.235294%,23.137255%);fill-opacity:1;" d="M 22.875 20.1875 C 23 20.320312 23.390625 20.253906 23.5 20.375 C 23.457031 20.183594 23.429688 19.996094 23.375 19.8125 C 23.304688 19.738281 23.054688 19.792969 23 19.6875 C 22.96875 19.828125 22.914062 20.023438 22.875 20.1875 Z M 22.875 20.1875 "/>
<path style=" stroke:none;fill-rule:nonzero;fill:rgb(99.607843%,62.352941%,0%);fill-opacity:1;" d="M 25.6875 20.5625 C 25.933594 20.664062 26.179688 20.746094 26.4375 20.8125 C 26.1875 20.910156 25.859375 20.9375 25.5625 20.9375 C 25.480469 21.273438 25.394531 21.605469 25.3125 21.9375 C 24.636719 22.398438 23.96875 21.96875 23.75 21.25 C 23.367188 21.253906 23.015625 21.386719 22.625 21.375 C 23.539062 22.816406 24.628906 24.183594 25.5625 25.625 C 23.90625 24.707031 22.359375 23.492188 20.6875 22.625 C 20.382812 23.738281 20.007812 24.828125 19.6875 25.9375 C 18.992188 24.773438 18.722656 23.238281 17.9375 22.1875 C 16.648438 23.25 15.28125 24.25 13.9375 25.25 C 14.425781 23.980469 15.011719 22.75 15.5625 21.5 C 13.359375 21.886719 11.207031 22.484375 9 22.875 C 9.40625 22.527344 9.929688 22.3125 10.375 22 C 10.03125 21.605469 9.660156 21.410156 9.75 20.875 C 7.792969 22.183594 5.957031 23.734375 4 25.0625 C 6.925781 24.652344 9.949219 23.839844 12.9375 23.375 C 12.289062 25.230469 11.566406 27.0625 11 28.9375 C 13.199219 27.304688 15.382812 25.667969 17.5625 24 C 18.316406 25.757812 19.128906 27.492188 19.875 29.25 C 20.472656 27.703125 20.957031 26.046875 21.4375 24.4375 C 23.851562 25.757812 26.167969 27.375 28.5625 28.75 C 27.453125 26.636719 26.109375 24.613281 25 22.5 C 26.117188 22.066406 27.167969 21.421875 28.25 20.9375 C 27.625 21.222656 27.074219 20.578125 26.9375 20 C 26.855469 19.925781 26.03125 19.648438 25.9375 19.6875 C 25.863281 19.953125 25.765625 20.273438 25.6875 20.5625 Z M 25.6875 20.5625 "/>
<path style=" stroke:none;fill-rule:nonzero;fill:rgb(96.862745%,61.176471%,0.392157%);fill-opacity:1;" d="M 11.5 21.3125 C 11.894531 20.804688 12.851562 20.671875 13.3125 20.25 C 13.339844 20.148438 13.226562 20.097656 13.25 20 C 12.511719 20.296875 11.722656 20.53125 11.5 21.3125 Z M 11.5 21.3125 "/>
<path style=" stroke:none;fill-rule:nonzero;fill:rgb(97.647059%,94.117647%,60.784314%);fill-opacity:1;" d="M 22.6875 20.875 C 22.859375 20.703125 23.460938 20.96875 23.5625 20.6875 C 23.539062 20.585938 23.523438 20.472656 23.5 20.375 C 23.390625 20.253906 23 20.320312 22.875 20.1875 C 22.824219 20.417969 22.734375 20.644531 22.6875 20.875 Z M 22.6875 20.875 "/>
<path style=" stroke:none;fill-rule:nonzero;fill:rgb(99.607843%,91.372549%,25.098039%);fill-opacity:1;" d="M 11.5 21.3125 C 11.292969 22.027344 10.980469 21.769531 10.375 22 C 9.929688 22.3125 9.40625 22.527344 9 22.875 C 11.207031 22.484375 13.359375 21.886719 15.5625 21.5 C 15.011719 22.75 14.425781 23.980469 13.9375 25.25 C 15.28125 24.25 16.648438 23.25 17.9375 22.1875 C 18.722656 23.238281 18.992188 24.773438 19.6875 25.9375 C 20.007812 24.828125 20.382812 23.738281 20.6875 22.625 C 22.359375 23.492188 23.90625 24.707031 25.5625 25.625 C 24.628906 24.183594 23.539062 22.816406 22.625 21.375 C 23.015625 21.386719 23.367188 21.253906 23.75 21.25 C 23.695312 21.066406 23.601562 20.851562 23.5625 20.6875 C 23.460938 20.96875 22.859375 20.703125 22.6875 20.875 C 22.625 21.175781 22.609375 21.765625 22.3125 21.875 C 22.78125 22.058594 22.5625 22.492188 23.015625 22.859375 C 23.46875 23.226562 23.007812 23.539062 22.609375 23.140625 C 22.210938 22.742188 21.894531 22.808594 21.519531 22.480469 C 21.144531 22.15625 20.824219 22.089844 20.4375 21.8125 C 20.109375 22.671875 19.929688 23.617188 19.5625 24.4375 C 19.164062 23.410156 18.664062 22.417969 18.3125 21.375 C 17.953125 21.53125 17.609375 21.792969 17.308594 22.058594 C 17.007812 22.324219 16.589844 22.535156 16.308594 22.808594 C 16.027344 23.078125 15.4375 23.410156 15.546875 22.859375 C 15.660156 22.3125 15.90625 22.128906 16.0625 21.625 C 15.972656 21.535156 15.792969 21.367188 15.75 21.25 C 15.726562 21.183594 15.699219 21.007812 15.6875 20.9375 C 15.652344 20.914062 15.238281 20.984375 15.1875 21 C 14.828125 21.160156 14.496094 21.386719 14.125 21.5 C 13.664062 21.167969 13.515625 20.710938 13.3125 20.25 C 12.851562 20.671875 11.894531 20.804688 11.5 21.3125 Z M 11.5 21.3125 "/>
<path style=" stroke:none;fill-rule:nonzero;fill:rgb(97.254902%,86.666667%,20.392157%);fill-opacity:1;" d="M 25.5625 20.9375 C 25.859375 20.9375 26.1875 20.910156 26.4375 20.8125 C 26.179688 20.746094 25.933594 20.664062 25.6875 20.5625 C 25.652344 20.6875 25.597656 20.8125 25.5625 20.9375 Z M 25.5625 20.9375 "/>
<path style=" stroke:none;fill-rule:nonzero;fill:rgb(81.960784%,44.313725%,5.098039%);fill-opacity:1;" d="M 28.25 20.9375 C 28.390625 20.875 28.738281 20.863281 28.8125 20.6875 C 28.785156 20.734375 28.316406 20.90625 28.25 20.9375 Z M 28.25 20.9375 "/>
<path style=" stroke:none;fill-rule:nonzero;fill:rgb(99.215686%,95.686275%,63.921569%);fill-opacity:1;" d="M 18.1875 21.0625 C 17.964844 21.214844 17.59375 21.4375 17.355469 21.542969 C 17.117188 21.648438 16.683594 21.972656 16.4375 21.9375 C 16.339844 21.921875 16.128906 21.691406 16.0625 21.625 C 15.90625 22.128906 15.660156 22.3125 15.546875 22.859375 C 15.4375 23.410156 16.027344 23.078125 16.308594 22.808594 C 16.589844 22.535156 17.007812 22.324219 17.308594 22.058594 C 17.609375 21.792969 17.953125 21.53125 18.3125 21.375 C 18.664062 22.417969 19.164062 23.410156 19.5625 24.4375 C 19.929688 23.617188 20.109375 22.671875 20.4375 21.8125 C 20.824219 22.089844 21.144531 22.15625 21.519531 22.480469 C 21.894531 22.808594 22.210938 22.742188 22.609375 23.140625 C 23.007812 23.539062 23.46875 23.226562 23.015625 22.859375 C 22.5625 22.492188 22.78125 22.058594 22.3125 21.875 C 21.679688 22.109375 20.765625 21.746094 20.75 21 C 20.339844 21.210938 19.949219 21.265625 19.5 21.375 C 19.050781 21.484375 18.589844 21.042969 18.1875 21.0625 Z M 18.1875 21.0625 "/>
<path style=" stroke:none;fill-rule:nonzero;fill:rgb(39.607843%,37.647059%,18.823529%);fill-opacity:1;" d="M 16.0625 21.625 C 16.128906 21.691406 16.339844 21.921875 16.4375 21.9375 C 16.339844 21.644531 15.871094 21.507812 15.75 21.25 C 15.792969 21.367188 15.972656 21.535156 16.0625 21.625 Z M 16.0625 21.625 "/>
</g>
</svg>
