<?xml version="1.0" encoding="UTF-8"?>
<svg id="Layer_1" data-name="Layer 1" xmlns="http://www.w3.org/2000/svg" viewBox="0 0 81.98 93.65">
  <g id="Layer_2" data-name="Layer 2">
    <g id="Layer_1-2" data-name="Layer 1-2">
      <path d="M79.26,21.37L44.11.84c-1.93-1.12-4.31-1.12-6.24,0L2.72,21.37C1.04,22.36,0,24.16,0,26.11v41.38c0,2,1.06,3.85,2.79,4.85l35.21,20.49c1.88,1.09,4.2,1.09,6.08,0l35.11-20.49c1.74-1,2.81-2.85,2.81-4.85V26.11c0-1.95-1.05-3.76-2.74-4.74ZM71.45,62.06c0,.38-.21.74-.54.93l-29.37,17.12c-.34.2-.76.2-1.1,0l-29.36-17.11c-.35-.21-.56-.59-.55-1v-30.44c0-.38.21-.74.54-.93l10.66-6.24c.34-.19.75-.19,1.09,0,.34.19.55.55.55.94v28.58l9.63-5.59v-29.85c0-.39.2-.75.54-.94l6.95-4.06c.34-.2.76-.2,1.1,0l7,4.07c.33.2.53.56.53.94v29.82l9.58,5.58v-28.58c0-.39.21-.75.55-.94.34-.19.75-.19,1.09,0l10.66,6.26c.33.19.54.55.54.93l-.09,30.51Z" style="fill: #788591; stroke-width: 0px;"/>
    </g>
  </g>
</svg>