<?xml version="1.0" encoding="UTF-8" standalone="no"?>
<svg version="1.1" xmlns="http://www.w3.org/2000/svg" xmlns:xlink="http://www.w3.org/1999/xlink" width="24" height="24"
	viewBox="0 0 24 24" xml:space="preserve" fill="currentColor">
	<g fill="#ffffff">
		<path class="st0" d="M21.8,5.5l-9-5.3c-0.5-0.3-1.1-0.3-1.6,0l-9,5.3C1.8,5.7,1.5,6.2,1.5,6.7v10.6c0,0.5,0.3,1,0.7,1.2l9,5.3
	c0.5,0.3,1.1,0.3,1.6,0l9-5.3c0.4-0.3,0.7-0.7,0.7-1.2V6.7C22.5,6.2,22.2,5.7,21.8,5.5z M19.8,15.9c0,0.1-0.1,0.2-0.1,0.2l-7.5,4.4
	c-0.1,0.1-0.2,0.1-0.3,0l-7.5-4.4c-0.1-0.1-0.1-0.2-0.1-0.3V8.1c0-0.1,0.1-0.2,0.1-0.2l2.7-1.6c0.1,0,0.2,0,0.3,0
	c0.1,0,0.1,0.1,0.1,0.2v7.3l2.5-1.4V4.7c0-0.1,0.1-0.2,0.1-0.2l1.8-1c0.1-0.1,0.2-0.1,0.3,0l1.8,1c0.1,0.1,0.1,0.1,0.1,0.2v7.6
	l2.5,1.4V6.5c0-0.1,0.1-0.2,0.1-0.2c0.1,0,0.2,0,0.3,0l2.7,1.6c0.1,0,0.1,0.1,0.1,0.2L19.8,15.9z" />
	</g>
</svg>