<svg width="123" height="24" viewBox="0 0 123 24" fill="currentColor" xmlns="http://www.w3.org/2000/svg">
<path d="M76.1045 16.7823H74.1622V16.4397C74.1622 14.7266 74.1622 13.0136 74.1622 11.3005C74.1663 10.9435 74.1299 10.5872 74.0537 10.2384C73.9927 9.91254 73.8438 9.60949 73.6232 9.36193C73.4026 9.11437 73.1186 8.93169 72.8018 8.83358C72.4849 8.73546 72.1473 8.72563 71.8254 8.80514C71.5034 8.88466 71.2092 9.0505 70.9745 9.2848C70.676 9.5529 70.4395 9.88289 70.2816 10.2517C70.1238 10.6206 70.0483 11.0194 70.0605 11.4204C70.0605 13.0878 70.0605 14.7552 70.0605 16.4283V16.788H68.141V16.4797C68.141 14.7666 68.141 13.0535 68.141 11.3405C68.144 11.0092 68.1153 10.6784 68.0553 10.3526C68.0199 10.0015 67.8769 9.66994 67.6458 9.40318C67.4147 9.13642 67.1068 8.9475 66.7643 8.86225C66.3853 8.76421 65.9858 8.78019 65.6159 8.90819C65.246 9.03618 64.9221 9.27049 64.6849 9.58173C64.3013 10.0328 64.0818 10.6004 64.0622 11.192C64.0279 12.0257 64.0622 12.8651 64.0279 13.7045C63.9936 14.5439 64.0279 15.5546 64.0279 16.4797V16.8051H62.0856V7.20629C62.5026 7.20629 62.9082 7.20629 63.3081 7.20629C63.3766 7.20629 63.468 7.32049 63.4909 7.40043C63.5937 7.7202 63.6794 8.0514 63.7765 8.42256C64.1438 7.97439 64.6058 7.61298 65.1292 7.3642C65.6526 7.11543 66.2247 6.98545 66.8043 6.98359C67.3884 6.96854 67.9651 7.11661 68.4697 7.41115C68.9743 7.70569 69.3867 8.13505 69.6606 8.65097L69.8891 8.37117C70.4418 7.66946 71.2339 7.19593 72.1138 7.04108C72.9938 6.88624 73.9 7.06093 74.6592 7.53177C75.1208 7.8362 75.4989 8.25108 75.7593 8.73872C76.0197 9.22637 76.1541 9.77132 76.1502 10.3241C76.2017 12.4425 76.1502 14.5667 76.1502 16.6909C76.1397 16.7235 76.1243 16.7543 76.1045 16.7823Z" />
<path d="M36.4527 13.7045C36.6584 13.0935 36.8469 12.5624 37.024 11.9914C37.5324 10.4896 38.0465 8.99356 38.5378 7.48607C38.5559 7.39174 38.6104 7.30831 38.6895 7.25381C38.7686 7.19932 38.866 7.17813 38.9606 7.19485C39.4976 7.19485 40.0346 7.19485 40.6115 7.19485C40.4116 7.80013 40.2231 8.33689 40.0403 8.90791C39.2062 11.4585 38.3665 14.009 37.521 16.5596C37.4524 16.7594 37.3667 16.8394 37.1496 16.828C36.7897 16.828 36.4298 16.828 36.0699 16.828C35.9968 16.8404 35.9217 16.825 35.8593 16.7849C35.7969 16.7447 35.7518 16.6827 35.7329 16.611C34.9902 14.8484 34.24 13.0878 33.4821 11.329C33.4478 11.2434 33.4078 11.1634 33.3393 11.0264L32.6652 12.6253C32.1053 13.9234 31.5512 15.2348 31.0028 16.5596C30.9285 16.7309 30.8543 16.8165 30.6543 16.8051C30.2852 16.7823 29.9151 16.7823 29.546 16.8051C29.3404 16.8051 29.2718 16.7252 29.209 16.5539C28.2455 13.6493 27.2686 10.7504 26.2784 7.85723L26.067 7.20627C26.7354 7.20627 27.3581 7.20627 27.9808 7.20627C28.0379 7.20627 28.1236 7.33189 28.1521 7.41755C28.7463 9.15726 29.3328 10.8989 29.9117 12.6424C30.0145 12.9564 30.123 13.2648 30.2487 13.6303C30.3173 13.4875 30.363 13.4018 30.403 13.3105C31.237 11.4071 32.0673 9.48464 32.8937 7.54317C32.9851 7.31476 33.1222 7.29763 33.3221 7.29192C33.5221 7.28621 33.6649 7.32618 33.7563 7.54317C34.6018 9.48464 35.4187 11.4204 36.2813 13.3219L36.4527 13.7045Z" />
<path d="M51.0886 16.7766H49.5348L49.3348 15.6346C48.7529 16.1935 48.0439 16.603 47.2688 16.8278C46.4937 17.0526 45.6755 17.0859 44.8846 16.9251C43.7262 16.7407 42.6787 16.1296 41.9483 15.212C41.2178 14.2464 40.8413 13.0592 40.8818 11.8492C40.9224 10.6392 41.3775 9.47991 42.1711 8.56532C42.6347 8.08382 43.1886 7.69832 43.8013 7.43084C44.4139 7.16336 45.0733 7.01914 45.7417 7.00642C46.4101 6.99369 47.0745 7.11271 47.6969 7.35667C48.3193 7.60064 48.8875 7.96477 49.3691 8.42827C49.4377 8.07424 49.5062 7.76018 49.5576 7.44612C49.5576 7.28623 49.649 7.22342 49.8204 7.22913C50.1746 7.22913 50.5345 7.22913 50.8944 7.22913C51.0486 7.22913 51.1172 7.26339 51.1172 7.4347C51.1172 10.5296 51.1172 13.6227 51.1172 16.7138C51.1172 16.7138 51.1001 16.7252 51.0886 16.7766ZM42.8795 11.9914C42.8795 12.8244 43.2105 13.6232 43.7998 14.2122C44.389 14.8012 45.1882 15.1321 46.0215 15.1321C46.8548 15.1321 47.654 14.8012 48.2432 14.2122C48.8324 13.6232 49.1635 12.8244 49.1635 11.9914C49.1635 11.1585 48.8324 10.3597 48.2432 9.77069C47.654 9.18171 46.8548 8.85083 46.0215 8.85083C45.1882 8.85083 44.389 9.18171 43.7998 9.77069C43.2105 10.3597 42.8795 11.1585 42.8795 11.9914Z" />
<path d="M121.509 8.75375V4.42542H122.692V16.8109H121.778L121.595 15.2463C121.081 15.8673 120.423 16.3536 119.678 16.663C118.934 16.9725 118.125 17.0957 117.322 17.0221C116.107 16.9664 114.963 16.4376 114.134 15.5489C113.304 14.6076 112.835 13.4031 112.809 12.1489C112.783 10.8946 113.201 9.67166 113.991 8.69665C114.613 7.98441 115.435 7.4768 116.351 7.24055C117.25 6.9978 118.198 6.9978 119.098 7.24055C120.035 7.49321 120.875 8.02021 121.509 8.75375ZM117.813 15.8687C118.317 15.8759 118.818 15.7807 119.285 15.589C119.751 15.3973 120.174 15.1129 120.528 14.7531C120.881 14.3934 121.158 13.9657 121.341 13.4959C121.525 13.0261 121.611 12.524 121.595 12.02C121.611 11.5109 121.524 11.0038 121.339 10.5291C121.155 10.0543 120.876 9.62172 120.52 9.25714C120.164 8.89256 119.738 8.60351 119.268 8.40729C118.798 8.21107 118.293 8.11171 117.783 8.11517C117.274 8.11863 116.77 8.22483 116.303 8.42742C115.835 8.63001 115.413 8.92482 115.062 9.2942C114.712 9.66357 114.439 10.0999 114.261 10.5771C114.083 11.0543 114.003 11.5625 114.025 12.0714C114.013 12.5725 114.102 13.0709 114.288 13.5365C114.474 14.0021 114.752 14.4252 115.106 14.7802C115.46 15.1351 115.883 15.4146 116.348 15.6017C116.813 15.7888 117.312 15.8796 117.813 15.8687Z" />
<path d="M91.5974 12.0428C91.5974 10.7071 92.1282 9.42605 93.0731 8.48154C94.0181 7.53703 95.2996 7.00641 96.636 7.00641C97.9723 7.00641 99.2539 7.53703 100.199 8.48154C101.144 9.42605 101.675 10.7071 101.675 12.0428C101.675 13.3785 101.144 14.6596 100.199 15.6041C99.2539 16.5486 97.9723 17.0792 96.636 17.0792C95.2996 17.0792 94.0181 16.5486 93.0731 15.6041C92.1282 14.6596 91.5974 13.3785 91.5974 12.0428ZM96.6417 15.8687C97.1494 15.8822 97.6546 15.7917 98.126 15.6026C98.5974 15.4136 99.025 15.13 99.3826 14.7694C99.7401 14.4088 100.02 13.9788 100.205 13.5059C100.39 13.0331 100.476 12.5274 100.458 12.02C100.458 11.0068 100.055 10.0351 99.3384 9.31873C98.6216 8.60232 97.6496 8.19984 96.636 8.19984C95.6224 8.19984 94.6503 8.60232 93.9335 9.31873C93.2168 10.0351 92.8142 11.0068 92.8142 12.02C92.7943 12.5288 92.8795 13.0362 93.0645 13.5107C93.2495 13.9851 93.5303 14.4163 93.8894 14.7774C94.2486 15.1386 94.6783 15.4218 95.1519 15.6096C95.6254 15.7973 96.1325 15.8855 96.6417 15.8687Z" />
<path d="M87.4443 10.3469C87.0901 10.3469 86.7644 10.3469 86.4445 10.3469C86.3531 10.3469 86.2389 10.227 86.1818 10.1356C85.7584 9.37667 85.0843 8.78843 84.2748 8.47165C83.4653 8.15486 82.5708 8.12924 81.7445 8.39916C80.9182 8.66908 80.2114 9.21776 79.7453 9.95123C79.2792 10.6847 79.0827 11.5573 79.1894 12.4197C79.2393 13.0917 79.4707 13.7376 79.859 14.2884C80.2473 14.8393 80.7779 15.2745 81.3941 15.5476C82.0104 15.8207 82.6893 15.9215 83.3584 15.8393C84.0275 15.7571 84.6617 15.4949 85.1935 15.0807C85.5575 14.76 85.8714 14.3866 86.1246 13.9729C86.1723 13.8755 86.2489 13.7952 86.344 13.743C86.4392 13.6909 86.5481 13.6695 86.6559 13.6817C86.913 13.6817 87.1758 13.6817 87.4385 13.6817C87.3471 15.3433 85.1135 16.9879 82.9198 17.0336C81.6615 17.061 80.4414 16.6008 79.515 15.7493C78.5885 14.8978 78.0277 13.721 77.9498 12.4654C77.8164 11.2207 78.1647 9.9723 78.9232 8.97627C79.6817 7.98024 80.7929 7.31218 82.0286 7.10921C84.5079 6.71521 86.913 8.12563 87.4443 10.3469Z" />
<path d="M103.068 7.26907H104.251V7.69163C104.251 9.30191 104.251 10.9122 104.251 12.5225C104.251 12.9951 104.314 13.4657 104.44 13.9215C104.646 14.4981 105.028 14.9957 105.532 15.3449C106.035 15.6941 106.635 15.8774 107.248 15.8692C107.861 15.861 108.456 15.6618 108.95 15.2993C109.444 14.9368 109.812 14.4291 110.004 13.8472C110.118 13.413 110.175 12.9658 110.175 12.5168C110.175 10.9236 110.175 9.32475 110.175 7.72589V7.28049H111.398C111.398 7.40612 111.398 7.52603 111.398 7.64595C111.398 9.33046 111.426 11.015 111.398 12.6938C111.391 13.34 111.285 13.9814 111.083 14.5953C110.779 15.3857 110.222 16.0537 109.499 16.4955C108.776 16.9374 107.927 17.1285 107.085 17.0392C104.611 16.9136 103.114 15.389 103.086 12.9165C103.057 11.1235 103.086 9.32475 103.086 7.52603C103.075 7.44073 103.07 7.35496 103.068 7.26907Z" />
<path d="M89.118 4.43112H90.2606V16.8051H89.118V4.43112Z" />
<path d="M58.6123 11.4204C58.3925 11.341 58.1672 11.2781 57.9382 11.232C57.3669 11.1178 56.7956 11.0321 56.2243 10.9065C55.8734 10.8368 55.5321 10.7256 55.2075 10.5753C55.0825 10.5173 54.9734 10.43 54.8893 10.3208C54.8053 10.2117 54.7488 10.0839 54.7247 9.94828C54.7006 9.81267 54.7096 9.67325 54.7509 9.54184C54.7921 9.41043 54.8645 9.29091 54.9618 9.19341C55.1074 9.03237 55.2869 8.9056 55.4874 8.82225C56.137 8.56529 56.8601 8.56529 57.5097 8.82225C57.7382 8.89783 57.9401 9.03769 58.091 9.22507C58.242 9.41244 58.3357 9.63937 58.3609 9.87864V9.9129C58.3635 9.92961 58.3717 9.94494 58.3841 9.95636C58.3966 9.96778 58.4126 9.97461 58.4294 9.97571L59.9262 9.52461C59.9866 9.50722 60.0381 9.46732 60.0699 9.41314C60.1018 9.35897 60.1117 9.29463 60.0976 9.23339C59.9583 8.63856 59.6018 8.1172 59.0978 7.77157C58.4944 7.33521 57.7903 7.0587 57.0511 6.96784C56.3118 6.87697 55.5617 6.97471 54.8704 7.25194C54.2201 7.485 53.6671 7.92987 53.3004 8.51503C52.9336 9.10019 52.7743 9.79164 52.8481 10.4782C52.9216 10.9197 53.1232 11.3298 53.4279 11.6577C53.7326 11.9856 54.1269 12.2168 54.562 12.3226C55.2532 12.5396 55.9787 12.6481 56.6814 12.8251C57.115 12.9114 57.5382 13.0434 57.9439 13.2191C58.0898 13.2897 58.2154 13.3963 58.3087 13.5288C58.402 13.6614 58.4599 13.8155 58.4771 13.9767C58.4942 14.1378 58.47 14.3007 58.4067 14.4499C58.3434 14.5991 58.2431 14.7297 58.1153 14.8294C57.945 14.9686 57.7517 15.0768 57.544 15.1492C56.9671 15.3495 56.3422 15.3655 55.7559 15.1948C55.4749 15.137 55.2156 15.0022 55.0068 14.8056C54.798 14.609 54.6479 14.3582 54.5734 14.0814C54.5645 14.0388 54.5531 13.9969 54.5391 13.9557C54.5365 13.939 54.5283 13.9237 54.5159 13.9123C54.5034 13.9008 54.4874 13.894 54.4706 13.8929L52.9281 14.3554C52.8977 14.364 52.8693 14.3785 52.8445 14.3981C52.8196 14.4176 52.7989 14.4419 52.7836 14.4695C52.7682 14.4971 52.7584 14.5274 52.7548 14.5588C52.7511 14.5902 52.7537 14.622 52.7625 14.6524C52.86 15.0117 53.0278 15.3481 53.2563 15.6422C53.4848 15.9362 53.7693 16.1821 54.0935 16.3654C54.7692 16.7527 55.5261 16.9766 56.3038 17.0192C57.0814 17.0619 57.8583 16.9221 58.5723 16.611C59.018 16.4512 59.4153 16.18 59.7264 15.8231C60.0374 15.4663 60.2517 15.0357 60.3489 14.5724C60.4949 13.9257 60.3988 13.2479 60.0788 12.6671C59.7588 12.0863 59.2371 11.6428 58.6123 11.4204Z" />
<path d="M20.3201 5.47608L11.3054 0.216983C11.0641 0.0742989 10.7889 -0.000976563 10.5085 -0.000976562C10.2281 -0.000976562 9.9529 0.0742989 9.71158 0.216983L0.696949 5.47608C0.484799 5.60051 0.308875 5.77821 0.186622 5.99156C0.064369 6.2049 3.50635e-05 6.44649 0 6.69236L0 17.2962C0.000655736 17.547 0.0668973 17.7934 0.192156 18.0107C0.317415 18.2281 0.497339 18.4089 0.714087 18.5353L9.71158 23.7887C9.94848 23.9261 10.2175 23.9985 10.4914 23.9985C10.7652 23.9985 11.0343 23.9261 11.2711 23.7887L20.2858 18.5353C20.5025 18.4089 20.6825 18.2281 20.8077 18.0107C20.933 17.7934 20.9992 17.547 20.9999 17.2962V6.69236C21.0016 6.44814 20.9399 6.20766 20.8207 5.99446C20.7015 5.78126 20.529 5.60264 20.3201 5.47608ZM18.3149 15.9029C18.3148 15.9513 18.3021 15.9989 18.278 16.0409C18.254 16.083 18.2195 16.118 18.1778 16.1428L10.6485 20.5567C10.6058 20.5838 10.5561 20.5977 10.5056 20.5967C10.457 20.5969 10.4094 20.583 10.3685 20.5567L2.85635 16.1428C2.81344 16.118 2.77803 16.0821 2.75389 16.0389C2.72975 15.9957 2.71778 15.9467 2.71924 15.8972V8.09136C2.71896 8.04208 2.73143 7.99357 2.75546 7.95055C2.77948 7.90752 2.81424 7.87144 2.85635 7.84582L5.56988 6.28122C5.61259 6.25782 5.66058 6.24572 5.70929 6.24608C5.758 6.24644 5.80581 6.25925 5.84817 6.28328C5.89053 6.30731 5.92604 6.34178 5.95132 6.38339C5.97661 6.42501 5.99082 6.4724 5.99262 6.52105V13.813L8.44908 12.3797V4.73376C8.44628 4.68678 8.45589 4.63989 8.47695 4.59779C8.49801 4.5557 8.52977 4.51988 8.56904 4.49393L10.3685 3.42612C10.4118 3.4036 10.4598 3.39184 10.5085 3.39184C10.5572 3.39184 10.6053 3.4036 10.6485 3.42612L12.4308 4.47109C12.4725 4.49579 12.507 4.53087 12.5311 4.57291C12.5551 4.61495 12.5678 4.6625 12.5679 4.71092V12.3797L15.0244 13.8073V6.48108C15.0262 6.43242 15.0404 6.38504 15.0657 6.34342C15.091 6.3018 15.1265 6.26734 15.1688 6.24331C15.2112 6.21928 15.259 6.20647 15.3077 6.20611C15.3564 6.20575 15.4044 6.21785 15.4471 6.24125L18.1778 7.85153C18.2203 7.87533 18.2554 7.91021 18.2796 7.95246C18.3037 7.9947 18.3159 8.04271 18.3149 8.09136V15.9029Z" />
</svg>
