<svg width="24" height="24" viewBox="0 0 24 24" fill="none" xmlns="http://www.w3.org/2000/svg">
<path d="M20.3201 5.47608L11.3054 0.216983C11.0641 0.0742989 10.7889 -0.000976563 10.5085 -0.000976562C10.2281 -0.000976562 9.9529 0.0742989 9.71158 0.216983L0.696949 5.47608C0.484799 5.60051 0.308875 5.77821 0.186622 5.99156C0.064369 6.2049 3.50635e-05 6.44649 0 6.69236L0 17.2962C0.000655736 17.547 0.0668973 17.7934 0.192156 18.0107C0.317415 18.2281 0.497339 18.4089 0.714087 18.5353L9.71158 23.7887C9.94848 23.9261 10.2175 23.9985 10.4914 23.9985C10.7652 23.9985 11.0343 23.9261 11.2711 23.7887L20.2858 18.5353C20.5025 18.4089 20.6825 18.2281 20.8077 18.0107C20.933 17.7934 20.9992 17.547 20.9999 17.2962V6.69236C21.0016 6.44814 20.9399 6.20766 20.8207 5.99446C20.7015 5.78126 20.529 5.60264 20.3201 5.47608ZM18.3149 15.9029C18.3148 15.9513 18.3021 15.9989 18.278 16.0409C18.254 16.083 18.2195 16.118 18.1778 16.1428L10.6485 20.5567C10.6058 20.5838 10.5561 20.5977 10.5056 20.5967C10.457 20.5969 10.4094 20.583 10.3685 20.5567L2.85635 16.1428C2.81344 16.118 2.77803 16.0821 2.75389 16.0389C2.72975 15.9957 2.71778 15.9467 2.71924 15.8972V8.09136C2.71896 8.04208 2.73143 7.99357 2.75546 7.95055C2.77948 7.90752 2.81424 7.87144 2.85635 7.84582L5.56988 6.28122C5.61259 6.25782 5.66058 6.24572 5.70929 6.24608C5.758 6.24644 5.80581 6.25925 5.84817 6.28328C5.89053 6.30731 5.92604 6.34178 5.95132 6.38339C5.97661 6.42501 5.99082 6.4724 5.99262 6.52105V13.813L8.44908 12.3797V4.73376C8.44628 4.68678 8.45589 4.63989 8.47695 4.59779C8.49801 4.5557 8.52977 4.51988 8.56904 4.49393L10.3685 3.42612C10.4118 3.4036 10.4598 3.39184 10.5085 3.39184C10.5572 3.39184 10.6053 3.4036 10.6485 3.42612L12.4308 4.47109C12.4725 4.49579 12.507 4.53087 12.5311 4.57291C12.5551 4.61495 12.5678 4.6625 12.5679 4.71092V12.3797L15.0244 13.8073V6.48108C15.0262 6.43242 15.0404 6.38504 15.0657 6.34342C15.091 6.3018 15.1265 6.26734 15.1688 6.24331C15.2112 6.21928 15.259 6.20647 15.3077 6.20611C15.3564 6.20575 15.4044 6.21785 15.4471 6.24125L18.1778 7.85153C18.2203 7.87533 18.2554 7.91021 18.2796 7.95246C18.3037 7.9947 18.3159 8.04271 18.3149 8.09136V15.9029Z" fill="currentColor"/>
</svg>
