<?xml version="1.0" encoding="UTF-8"?>
<svg id="Layer_1" data-name="Layer 1" xmlns="http://www.w3.org/2000/svg" viewBox="0 0 169.09 89.79">
  <g id="Layer_2" data-name="Layer 2">
    <g id="Layer_1-2" data-name="Layer 1-2">
      <path d="M87.55,89.31h-3.41v-9.6c.02-.63-.03-1.27-.14-1.89-.33-1.73-2-2.87-3.73-2.54-.63.12-1.21.43-1.66.88-1.06.94-1.65,2.3-1.61,3.72v9.4h-3.41v-9.55c0-.58-.05-1.16-.17-1.73-.13-1.26-1.03-2.3-2.25-2.61-1.36-.36-2.79.14-3.64,1.26-.67.79-1.06,1.78-1.1,2.81-.06,1.47-.05,2.94-.06,4.41v5.43h-3.37v-16.76h2.14c.11,0,.27.2.32.34.18.56.32,1.14.5,1.79,1.3-1.59,3.24-2.51,5.29-2.52,2.09-.06,4.02,1.08,5,2.92l.39-.49c2.01-2.54,5.61-3.16,8.36-1.45,1.62,1.09,2.58,2.92,2.55,4.87.1,3.71,0,7.43,0,11.14,0,.06,0,.11,0,.17Z" style="fill: #fff; stroke-width: 0px;"/>
      <path d="M18.14,83.93c.36-1.07.69-2,1-3,.86-2.63,1.8-5.25,2.67-7.93.05-.34.37-.57.71-.52.01,0,.02,0,.03,0h2.89c-.36,1.06-.68,2-1,3-1.49,4.49-2.97,8.94-4.44,13.37-.12.36-.27.5-.66.48h-1.89c-.26.04-.51-.12-.58-.38-1.33-3.09-2.65-6.18-3.94-9.26-.06-.14-.14-.28-.25-.52-.42,1-.81,1.89-1.19,2.8-1,2.31-1.95,4.62-2.91,6.94-.12.3-.26.45-.61.43-.65-.04-1.29-.04-1.94,0-.35,0-.48-.14-.58-.44-1.68-5.09-3.37-10.16-5.08-15.23l-.37-1.14h3.34c.11,0,.26.22.31.37l3.08,9.15c.18.55.36,1.09.58,1.73.12-.25.21-.4.27-.56,1.46-3.36,2.93-6.73,4.36-10.1.17-.4.4-.44.76-.44.33-.05.64.13.76.44,1.44,3.38,2.91,6.73,4.37,10.1.08.21.17.4.31.7Z" style="fill: #fff; stroke-width: 0px;"/>
      <path d="M43.75,89.3h-2.75l-.36-2c-2.07,1.98-4.98,2.83-7.79,2.26-2.02-.32-3.86-1.39-5.13-3-2.67-3.5-2.51-8.39.39-11.7,3.42-3.54,9.06-3.64,12.6-.23.12-.63.24-1.17.32-1.72,0-.28.17-.39.46-.38h1.89c.26,0,.39.07.39.37,0,5.42,0,10.84,0,16.25,0,.05,0,.1-.02.15ZM29.39,81c.02,3.03,2.49,5.46,5.52,5.44s5.46-2.49,5.44-5.52c-.02-3.02-2.48-5.45-5.5-5.44-2.95-.06-5.4,2.28-5.46,5.24,0,.09,0,.19,0,.28Z" style="fill: #fff; stroke-width: 0px;"/>
      <path d="M167,75.25v-7.58h2.06v21.69h-1.56l-.32-2.74c-1.83,2.2-4.63,3.36-7.48,3.11-2.13-.1-4.14-1.02-5.59-2.58-3-3.4-3.11-8.48-.24-12,1.08-1.26,2.52-2.16,4.13-2.58,1.58-.43,3.23-.43,4.81,0,1.63.46,3.09,1.39,4.19,2.68ZM160.53,87.71c3.7.03,6.73-2.94,6.76-6.64.03-3.7-2.94-6.73-6.64-6.76s-6.73,2.94-6.76,6.64c0,.04,0,.07,0,.11-.07,3.61,2.8,6.58,6.41,6.65.09,0,.18,0,.26,0h-.03Z" style="fill: #fff; stroke-width: 0px;"/>
      <path d="M114.66,81c-.03-4.88,3.89-8.86,8.77-8.89,4.88-.03,8.86,3.89,8.89,8.77.03,4.88-3.89,8.86-8.77,8.89-.02,0-.04,0-.06,0-4.72.16-8.67-3.54-8.83-8.26,0-.17,0-.34,0-.51ZM123.5,87.71c3.7,0,6.7-3.01,6.69-6.71s-3.01-6.7-6.71-6.69c-3.69,0-6.68,3-6.69,6.69-.11,3.6,2.72,6.6,6.32,6.71.13,0,.26,0,.39,0Z" style="fill: #fff; stroke-width: 0px;"/>
      <path d="M107.39,78h-1.74c-.2-.05-.37-.19-.46-.37-1.78-3.16-5.78-4.28-8.95-2.51-2.31,1.3-3.62,3.87-3.3,6.51.28,3.6,3.42,6.29,7.01,6.01,1.27-.1,2.49-.57,3.5-1.35.64-.56,1.19-1.22,1.63-1.94.17-.35.54-.55.93-.51h1.38c-.16,2.92-4.08,5.8-7.91,5.88-4.84-.02-8.75-3.97-8.73-8.81.02-4.2,3.02-7.8,7.16-8.58,4.35-.65,8.55,1.82,9.48,5.67Z" style="fill: #fff; stroke-width: 0px;"/>
      <path d="M134.74,72.65h2.08v9.19c0,.83.11,1.66.33,2.46.96,2.68,3.91,4.07,6.59,3.11,1.49-.54,2.66-1.73,3.15-3.24.19-.76.29-1.54.29-2.33v-9.17h2.07v.64c0,3,.05,5.9,0,8.84,0,1.13-.2,2.26-.56,3.33-1.09,2.85-3.97,4.6-7,4.27-4.33-.21-7-2.88-7-7.21v-9.44c.02-.1.04-.25.05-.45Z" style="fill: #fff; stroke-width: 0px;"/>
      <path d="M110.37,67.67h2v21.68h-2v-21.68Z" style="fill: #fff; stroke-width: 0px;"/>
      <path d="M56.93,79.92c-.39-.14-.79-.25-1.19-.34-1-.2-2-.34-3-.56-.6-.12-1.19-.32-1.74-.58-.76-.34-1.1-1.22-.76-1.98.08-.17.18-.33.32-.46.25-.28.57-.51.92-.65,1.14-.45,2.4-.45,3.54,0,.82.27,1.4,1,1.49,1.85v.07c0,.06.05.11.11.11h0l2.63-.79c.22-.07.35-.29.3-.51-.24-1.04-.87-1.95-1.75-2.56-2.15-1.55-4.94-1.9-7.41-.92-2.34.85-3.8,3.19-3.54,5.66.26,1.58,1.44,2.85,3,3.23,1.21.38,2.48.57,3.72.88.76.15,1.5.38,2.21.69.83.4,1.18,1.4.78,2.23-.11.23-.27.43-.48.59-.3.24-.64.43-1,.55-1.01.36-2.1.39-3.13.09-1.02-.21-1.82-.99-2.07-2l-.06-.22c0-.06-.06-.11-.12-.11h0l-2.7.81c-.22.07-.35.29-.3.52.34,1.27,1.18,2.35,2.33,3,2.4,1.38,5.31,1.53,7.84.43,1.56-.54,2.74-1.84,3.13-3.45.56-2.37-.77-4.78-3.07-5.58Z" style="fill: #fff; stroke-width: 0px;"/>
      <path d="M108.22,13.22L86.47.52c-1.19-.69-2.66-.69-3.85,0l-21.75,12.7c-1.04.61-1.69,1.73-1.69,2.94v25.6c0,1.24.66,2.38,1.73,3l21.75,12.68c1.17.67,2.6.67,3.77,0l21.75-12.68c1.07-.62,1.73-1.76,1.73-3v-25.6c0-1.21-.64-2.33-1.69-2.94ZM103.39,38.4c0,.24-.13.46-.33.58l-18.18,10.59c-.1.06-.21.09-.33.09-.12,0-.24-.03-.34-.09l-18.21-10.57c-.21-.12-.34-.35-.34-.59v-18.88c.02-.22.15-.42.34-.53l6.6-3.86c.21-.12.47-.12.68,0,.2.12.33.34.33.58v17.64l5.93-3.47V11.43c0-.24.13-.46.33-.58l4.31-2.52c.21-.12.47-.12.68,0l4.3,2.52c.21.12.33.34.33.58v18.46l5.93,3.45V15.66c0-.24.13-.47.34-.59.21-.12.46-.12.67,0l6.6,3.87c.21.12.33.34.33.58l.03,18.88Z" style="fill: #00bc8e; stroke-width: 0px;"/>
    </g>
  </g>
</svg>