<?xml version="1.0" encoding="UTF-8"?>
<svg id="Layer_1" data-name="Layer 1" xmlns="http://www.w3.org/2000/svg" viewBox="0 0 214.77 42.03">
  <g id="Layer_2" data-name="Layer 2">
    <g id="Layer_1-2" data-name="Layer 1-2">
      <path d="M133.22,29.39h-3.4v-9.6c0-.63-.06-1.25-.19-1.86-.32-1.73-1.99-2.87-3.72-2.55-.63.12-1.21.42-1.67.88-1.06.95-1.64,2.32-1.6,3.74v9.4h-3.36v-9.54c0-.58-.05-1.16-.15-1.73-.13-1.26-1.03-2.3-2.26-2.61-1.36-.35-2.79.15-3.64,1.26-.67.79-1.06,1.78-1.09,2.82-.06,1.46,0,2.93-.06,4.4s0,3.24,0,4.86v.57h-3.4V12.62h2.14c.12,0,.28.2.32.34.18.56.33,1.14.5,1.79,1.3-1.59,3.25-2.51,5.3-2.52,2.09-.05,4.02,1.08,5,2.92l.4-.49c2-2.54,5.6-3.18,8.35-1.47,1.64,1.08,2.62,2.92,2.61,4.89.09,3.71,0,7.43,0,11.15-.02.06-.05.11-.08.16Z" style="fill: #fff; stroke-width: 0px;"/>
      <path d="M63.81,24c.36-1.07.69-2,1-3,.89-2.63,1.79-5.25,2.65-7.89.07-.34.4-.57.74-.51h2.89c-.35,1.06-.68,2-1,3-1.46,4.47-2.93,8.93-4.41,13.4-.12.35-.27.49-.65.47h-1.89c-.27.05-.52-.12-.59-.38-1.3-3.09-2.61-6.17-3.94-9.25-.06-.15-.13-.29-.25-.53l-1.18,2.8c-.98,2.27-1.95,4.57-2.91,6.89-.13.3-.26.45-.61.43-.65-.04-1.29-.04-1.94,0-.36,0-.48-.14-.59-.44-1.69-5.09-3.4-10.16-5.13-15.23l-.37-1.14h3.35c.1,0,.25.22.3.37,1.04,3.05,2.07,6.1,3.08,9.15.18.55.37,1.09.59,1.73.12-.25.2-.4.27-.56,1.46-3.33,2.91-6.7,4.36-10.1.16-.4.4-.43.75-.44s.6.06.76.44c1.48,3.4,2.91,6.79,4.42,10.12l.3.67Z" style="fill: #fff; stroke-width: 0px;"/>
      <path d="M89.43,29.38h-2.72l-.35-2c-2.07,1.99-4.98,2.83-7.79,2.26-2.03-.32-3.86-1.39-5.14-3-2.64-3.49-2.47-8.34.39-11.64,3.41-3.55,9.05-3.65,12.6-.24,0,0,0,0,0,0,.12-.62.24-1.17.33-1.72,0-.28.16-.39.46-.38h1.88c.27,0,.39.06.39.36,0,5.42,0,10.84,0,16.25,0,0,0,.11-.05.11ZM75.06,21c0,3.04,2.46,5.5,5.5,5.5s5.5-2.46,5.5-5.5-2.46-5.5-5.5-5.5-5.5,2.46-5.5,5.5Z" style="fill: #fff; stroke-width: 0px;"/>
      <path d="M212.7,15.33v-7.58h2.07v21.69h-1.6l-.32-2.74c-1.83,2.21-4.63,3.37-7.48,3.11-2.13-.1-4.13-1.02-5.58-2.58-3-3.4-3.1-8.47-.25-12,1.09-1.25,2.53-2.14,4.13-2.55,1.58-.43,3.23-.43,4.81,0,1.64.44,3.11,1.37,4.22,2.65ZM206.23,27.79c3.61.05,6.57-2.83,6.62-6.44,0-.1,0-.2,0-.3.12-3.66-2.76-6.72-6.42-6.84s-6.72,2.76-6.84,6.42c0,.17,0,.34,0,.51-.09,3.58,2.74,6.56,6.33,6.65.1,0,.2,0,.3,0Z" style="fill: #fff; stroke-width: 0px;"/>
      <path d="M160.34,21.09c0-4.87,3.95-8.82,8.82-8.82,4.87,0,8.82,3.95,8.82,8.82,0,4.87-3.95,8.82-8.82,8.82-4.87,0-8.82-3.95-8.82-8.82ZM169.17,27.79c3.59.1,6.59-2.74,6.68-6.33,0-.14,0-.27,0-.41,0-3.69-3-6.69-6.69-6.69s-6.69,3-6.69,6.69c-.14,3.58,2.65,6.6,6.23,6.74.16,0,.31,0,.47,0Z" style="fill: #fff; stroke-width: 0px;"/>
      <path d="M153.07,18.12h-1.75c-.16,0-.36-.21-.46-.37-1.76-3.16-5.76-4.3-8.92-2.54-2.33,1.3-3.64,3.88-3.32,6.54.27,3.59,3.39,6.29,6.98,6.02,1.28-.1,2.51-.57,3.53-1.36.64-.56,1.19-1.22,1.63-1.94.17-.35.54-.55.93-.51h1.37c-.16,2.91-4.07,5.79-7.91,5.87-4.58.1-8.42-3.43-8.7-8-.48-4.53,2.65-8.64,7.14-9.38,4.34-.69,8.55,1.78,9.48,5.67Z" style="fill: #fff; stroke-width: 0px;"/>
      <path d="M180.42,12.73h2.07v9.2c0,.83.11,1.65.33,2.45.96,2.68,3.91,4.07,6.59,3.11,1.49-.54,2.66-1.73,3.15-3.24.2-.76.3-1.54.3-2.33v-9.17h2.14v.64c0,2.95.05,5.9,0,8.84-.01,1.13-.2,2.25-.55,3.33-1.1,2.85-3.97,4.6-7,4.28-4.33-.22-6.95-2.89-7-7.22-.05-3.14,0-6.29,0-9.44-.02-.15-.03-.3-.03-.45Z" style="fill: #fff; stroke-width: 0px;"/>
      <path d="M156,7.76h2v21.67h-2V7.76Z" style="fill: #fff; stroke-width: 0px;"/>
      <path d="M102.6,20c-.38-.14-.78-.25-1.18-.33-1-.2-2-.35-3-.57-.61-.12-1.21-.32-1.78-.58-.75-.35-1.08-1.24-.73-1.99.07-.16.17-.3.3-.43.25-.28.57-.5.92-.65,1.14-.45,2.4-.45,3.54,0,.82.27,1.4.99,1.49,1.85v.06c0,.06.06.11.12.11h0l2.62-.79c.22-.06.35-.29.3-.51-.24-1.04-.87-1.95-1.75-2.56-2.15-1.55-4.94-1.9-7.4-.91-2.34.84-3.81,3.18-3.54,5.65.26,1.58,1.44,2.85,3,3.23,1.21.38,2.48.57,3.71.88.76.15,1.5.38,2.21.69.83.4,1.18,1.4.78,2.23-.11.23-.27.43-.48.59-.3.24-.64.43-1,.56-1.01.35-2.1.38-3.13.08-1-.21-1.8-.96-2.07-1.95-.02-.07-.04-.15-.06-.22,0-.06-.06-.11-.12-.11h0l-2.7.81c-.22.06-.35.29-.29.52,0,0,0,0,0,0,.34,1.27,1.18,2.35,2.33,3,2.4,1.38,5.31,1.53,7.84.43,1.59-.57,2.76-1.92,3.11-3.57.53-2.34-.78-4.71-3.04-5.52Z" style="fill: #fff; stroke-width: 0px;"/>
      <path d="M35.57,9.59L19.79.38c-.86-.51-1.93-.51-2.79,0L1.22,9.59C.46,10.03,0,10.84,0,11.72v18.57c0,.89.48,1.72,1.25,2.17l15.75,9.2c.84.49,1.89.49,2.73,0l15.78-9.2c.77-.45,1.25-1.28,1.25-2.17V11.72c0-.87-.45-1.68-1.19-2.13ZM32.06,27.85c0,.17-.09.33-.24.42l-13.18,7.73c-.07.05-.16.07-.25.07-.09,0-.17-.02-.24-.07l-13.15-7.73c-.15-.09-.25-.25-.24-.43v-13.67c0-.18.09-.34.24-.43l4.75-2.74c.24-.13.55-.04.68.2.04.07.06.14.06.22v12.77l4.3-2.51v-13.39c0-.17.07-.33.21-.42l3.15-1.87c.15-.08.34-.08.49,0l3.12,1.83c.15.09.24.25.24.42v13.43l4.3,2.5v-12.83c.01-.28.24-.49.52-.48.08,0,.15.02.22.06l4.78,2.82c.15.08.24.25.24.42v13.68Z" style="fill: #00bc8e; stroke-width: 0px;"/>
    </g>
  </g>
</svg>